<?xml version="1.0" encoding="UTF-8"?>
<svg width="95px" height="76px" viewBox="0 0 95 76" version="1.1" xmlns="http://www.w3.org/2000/svg" xmlns:xlink="http://www.w3.org/1999/xlink">
    <!-- Generator: Sketch 50 (54983) - http://www.bohemiancoding.com/sketch -->
    <title>te패le패chargement</title>
    <desc>Created with Sketch.</desc>
    <defs></defs>
    <g id="Page-1" stroke="none" stroke-width="1" fill="none" fill-rule="evenodd">
        <g id="iPhone-X" transform="translate(-139.000000, -954.000000)" fill="#FFFFFF" fill-rule="nonzero">
            <g id="covoiturage{:easeInOutQuad;0,159.31,0.77,343,250,360,1;10,260.57,0.66,343,250,360,1;20,85.28,0.25,343,250,360,1;30,344.15,0.5,343,250,360,1;}" transform="translate(17.000000, 879.000000)">
                <g id="te패le패chargement" transform="translate(122.000000, 75.264000)">
                    <path d="M89.775,30.9375 L87.544875,30.9375 L89.15275,35.0625 C90.2773125,37.9488281 91.1988125,42.84375 91.1988125,45.9375 L91.1988125,68.3496094 C91.1988125,71.9589844 88.2063125,74.9121094 84.5488125,74.9121094 C80.8913125,74.9121094 77.8988125,71.9589844 77.8988125,68.3496094 L77.8988125,64.7707031 C68.316875,66.0175781 58.104375,66.69375 47.4988125,66.69375 C36.89325,66.69375 26.6819375,66.0164063 17.0988125,64.7707031 L17.0988125,68.3496094 C17.0988125,71.9589844 14.1063125,74.9121094 10.4488125,74.9121094 C6.7913125,74.9121094 3.7988125,71.9589844 3.7988125,68.3496094 L3.7988125,45.9375 C3.7988125,42.84375 4.719125,37.9488281 5.844875,35.0625 L7.45275,30.9375 L5.225,30.9375 C2.35125,30.9375 0,28.6171875 0,25.78125 C0,22.9453125 2.35125,20.625 5.225,20.625 L11.473625,20.625 L16.0039375,9.00117188 C17.1296875,6.1125 20.5164375,3.05507812 23.5303125,2.20546875 C23.5303125,2.20546875 31.35,0 47.5,0 C63.65,0 71.4685,2.20546875 71.4685,2.20429688 C74.4835625,3.05507812 77.8703125,6.1125 78.9960625,9 L83.526375,20.625 L89.775,20.625 C92.64875,20.625 95,22.9453125 95,25.78125 C95,28.6171875 92.64875,30.9375 89.775,30.9375 Z M53.45175,15.1664063 C53.45175,18.4101563 50.787,21.0398438 47.5,21.0398438 C44.213,21.0398438 41.54825,18.4101563 41.54825,15.1664063 C41.54825,11.9226563 44.213,9.29296875 47.5,9.29296875 C50.787,9.29296875 53.45175,11.9226563 53.45175,15.1664063 Z M29.1424375,10.6007813 C25.8554375,10.6007813 23.1906875,13.2304688 23.1906875,16.4742188 C23.1906875,19.7179688 25.8554375,22.3476563 29.1424375,22.3476563 C32.4294375,22.3476563 35.0941875,19.7179688 35.0941875,16.4742188 C35.0941875,13.2304688 32.4294375,10.6007813 29.1424375,10.6007813 Z M21.85,43.59375 C21.85,40.7484375 19.510625,38.4375 16.625,38.4375 C13.739375,38.4375 11.4,40.7484375 11.4,43.59375 C11.4,46.4390625 13.739375,48.75 16.625,48.75 C19.510625,48.75 21.85,46.4390625 21.85,43.59375 Z M65.1616875,46.3078125 C65.1616875,46.3078125 56.2815625,50.2476563 47.5,50.2476563 C38.7184375,50.2476563 29.8383125,46.3078125 29.8383125,46.3078125 C26.744875,44.9355469 26.12975,45.7933594 28.4715,48.2144531 C28.4715,48.2144531 37.44425,57.4910156 47.5,57.4910156 C57.55575,57.4910156 66.5285,48.2144531 66.5285,48.2144531 C68.87025,45.7933594 68.255125,44.9355469 65.1616875,46.3078125 Z M73.8684375,28.8234375 C74.9015625,28.6441406 75.9335,28.4589844 76.9630625,28.2585937 C77.9985625,28.0476562 78.55075,27.1523437 78.1933125,26.2488281 C76.4334375,21.759375 74.667625,16.6710937 72.8994375,11.1316406 C72.542,10.0136719 71.3960625,8.93203125 70.354625,8.7703125 C55.2056875,6.49453125 39.7955,6.49453125 24.6465625,8.7703125 C23.605125,8.93203125 22.460375,10.0136719 22.1005625,11.1328125 C20.3311875,16.6722656 18.5665625,21.7617187 16.8066875,26.25 C16.44925,27.1523437 17.002625,28.0476562 18.038125,28.2585937 C19.0676875,28.4589844 20.099625,28.6441406 21.13275,28.8234375 C21.591125,26.5347656 23.6253125,24.0527344 25.7165,23.7339844 C27.994125,23.3871094 30.293125,23.3871094 32.57075,23.7339844 C34.67975,24.0550781 36.7329375,26.5769531 37.1675625,28.8808594 C37.275625,29.5148437 37.384875,30.1417969 37.4929375,30.7699219 C37.9655625,30.8003906 38.4381875,30.8285156 38.9108125,30.8554687 C39.099625,29.7679687 39.2884375,28.6746094 39.47725,27.571875 C39.911875,25.2679687 41.9650625,22.7460938 44.0740625,22.425 C46.3516875,22.078125 48.6506875,22.078125 50.9283125,22.425 C53.0373125,22.7460938 55.0905,25.2679687 55.525125,27.571875 C55.7139375,28.6746094 55.90275,29.7667969 56.0915625,30.8554687 C56.5641875,30.8285156 57.0368125,30.8003906 57.5094375,30.7699219 C57.6175,30.140625 57.72675,29.5148437 57.8348125,28.8808594 C58.2694375,26.5769531 60.322625,24.0550781 62.431625,23.7339844 C64.70925,23.3871094 67.00825,23.3871094 69.285875,23.7339844 C71.3770625,24.0527344 73.41125,26.5347656 73.8684375,28.8234375 Z M83.6,43.59375 C83.6,40.7460938 81.260625,38.4375 78.375,38.4375 C75.489375,38.4375 73.15,40.7460938 73.15,43.59375 C73.15,46.4414063 75.489375,48.75 78.375,48.75 C81.260625,48.75 83.6,46.4414063 83.6,43.59375 Z M65.8575625,10.6007813 C62.5705625,10.6007813 59.9058125,13.2304688 59.9058125,16.4742188 C59.9058125,19.7179688 62.5705625,22.3476563 65.8575625,22.3476563 C69.1445625,22.3476563 71.8093125,19.7179688 71.8093125,16.4742188 C71.8105,13.2304688 69.14575,10.6007813 65.8575625,10.6007813 Z" id="Shape"></path>
                </g>
            </g>
        </g>
    </g>
</svg>