<?xml version="1.0" encoding="UTF-8"?>
<svg width="43px" height="31px" viewBox="0 0 43 31" version="1.1" xmlns="http://www.w3.org/2000/svg" xmlns:xlink="http://www.w3.org/1999/xlink">
    <!-- Generator: Sketch 50 (54983) - http://www.bohemiancoding.com/sketch -->
    <title>list-symbol-of-three-items-with-dots_icon-icons.com_72994</title>
    <desc>Created with Sketch.</desc>
    <defs></defs>
    <g id="Page-1" stroke="none" stroke-width="1" fill="none" fill-rule="evenodd">
        <g id="iPhone-X" transform="translate(-251.000000, -1071.000000)" fill="#0089BF" fill-rule="nonzero">
            <g id="list-symbol-of-three-items-with-dots_icon-icons.com_72994" transform="translate(251.000000, 1071.000000)">
                <path d="M4.16130392,0.0589493464 C1.8628415,0.0589493464 0,1.92179085 0,4.22018301 C0,6.51857516 1.8628415,8.38148693 4.16130392,8.38148693 C6.45976634,8.38148693 8.32260784,6.51857516 8.32260784,4.22018301 C8.32260784,1.92179085 6.45969608,0.0589493464 4.16130392,0.0589493464 Z M4.16130392,11.1556895 C1.8628415,11.1556895 0,13.0186013 0,15.3169935 C0,17.6154559 1.8628415,19.4782974 4.16130392,19.4782974 C6.45976634,19.4782974 8.32260784,17.6154559 8.32260784,15.3169935 C8.32260784,13.0186013 6.45969608,11.1556895 4.16130392,11.1556895 Z M4.16130392,22.2525 C1.8628415,22.2525 0,24.1153415 0,26.4138039 C0,28.7121961 1.8628415,30.5751078 4.16130392,30.5751078 C6.45976634,30.5751078 8.32260784,28.7121961 8.32260784,26.4138039 C8.32260784,24.1153415 6.45969608,22.2525 4.16130392,22.2525 Z M13.8709428,6.99438562 L40.2257271,6.99438562 C41.7584804,6.99438562 42.9999297,5.75293627 42.9999297,4.22018301 C42.9999297,2.68742974 41.7584804,1.44598039 40.2257271,1.44598039 L13.8709428,1.44598039 C12.3381895,1.44598039 11.0967402,2.68742974 11.0967402,4.22018301 C11.0967402,5.75293627 12.3381895,6.99438562 13.8709428,6.99438562 Z M40.2257974,12.5427908 L13.8709428,12.5427908 C12.3381895,12.5427908 11.0967402,13.7842402 11.0967402,15.3169935 C11.0967402,16.8496765 12.3381895,18.0911961 13.8709428,18.0911961 L40.2257271,18.0911961 C41.7584804,18.0911961 42.9999297,16.8496765 42.9999297,15.3169935 C43,13.7842402 41.7585507,12.5427908 40.2257974,12.5427908 Z M40.2257974,23.639531 L13.8709428,23.639531 C12.3381895,23.639531 11.0967402,24.8810507 11.0967402,26.4137337 C11.0967402,27.9464167 12.3381895,29.187866 13.8709428,29.187866 L40.2257271,29.187866 C41.7584804,29.187866 42.9999297,27.9464167 42.9999297,26.4137337 C42.9999297,24.8810507 41.7585507,23.639531 40.2257974,23.639531 Z" id="Shape"></path>
            </g>
        </g>
    </g>
</svg>