<?xml version="1.0" encoding="UTF-8"?>
<svg width="180px" height="89px" viewBox="0 0 180 89" version="1.1" xmlns="http://www.w3.org/2000/svg" xmlns:xlink="http://www.w3.org/1999/xlink">
    <!-- Generator: Sketch 50 (54983) - http://www.bohemiancoding.com/sketch -->
    <title>Sandwich_one_bw_clip_art</title>
    <desc>Created with Sketch.</desc>
    <defs></defs>
    <g id="Page-1" stroke="none" stroke-width="1" fill="none" fill-rule="evenodd">
        <g id="iPhone-X" transform="translate(-99.000000, -1620.000000)" fill="#FFFFFF" fill-rule="nonzero">
            <g id="self{:easeOutQuint;0,301.46,0.19,343,250,360,1;10,117.23,0.16,343,250,360,1;20,105.62,0.22,343,250,360,1;30,263.77,0.77,343,250,360,1;}" transform="translate(17.000000, 1545.000000)">
                <g id="Sandwich_one_bw_clip_art" transform="translate(82.000000, 75.264000)">
                    <path d="M116.928122,0.0220535949 C116.065014,-0.0172995451 115.315434,-0.000664416021 114.64885,0.0457260804 C113.923763,0.0961768816 112.482959,0.141825009 111.457868,0.164088508 C111.154432,0.170686503 110.644624,0.272588031 110.229043,0.306123421 C109.657841,0.351089781 109.19045,0.405487259 108.663282,0.47183082 C108.162162,0.534447385 107.697245,0.540871151 107.275899,0.613865733 C106.001314,0.834675103 104.374876,1.0866564 103.648883,1.1583329 C101.552574,1.36530239 100.227072,1.61630649 98.7930414,2.12890481 C98.0588478,2.39133988 96.6939671,2.79852178 95.7804379,3.02845926 C94.8669214,3.25840431 93.9255747,3.54987511 93.6795433,3.66761637 C93.1174232,3.93662671 92.2836614,4.2592164 90.5083817,4.89858561 C89.1255079,5.39663198 89.0948998,5.40578282 88.585865,4.87491313 C88.1481812,4.41844701 87.4808864,4.04049021 86.5444297,3.71496134 C86.4544067,3.68247133 86.3437332,3.6137643 86.266953,3.59659891 C86.2042275,3.58256965 86.1107162,3.56296504 86.0489357,3.54925394 C85.4797439,3.3789484 84.8471225,3.23195173 84.0669597,3.07580423 C82.8723704,2.83669319 81.2154892,2.46628886 80.3804843,2.27093972 C76.4953039,1.36200718 72.4459842,0.919880901 68.9048432,0.968953016 C68.895298,0.96908937 68.8945622,0.968816663 68.8850234,0.968953016 C68.7590205,0.968604557 68.6307153,0.990716553 68.508448,0.992625502 C67.511143,1.01816906 66.5316219,1.07325588 65.6345827,1.18200539 C63.9995064,1.38024067 62.3280632,1.56631777 61.9084678,1.60811013 C61.583151,1.64050924 56.7813781,2.72474695 55.8832607,3.02845926 C54.9851434,3.33217157 48.1375272,5.28014821 47.1625663,5.53774272 C45.9964477,5.84584107 45.6473282,5.97356644 44.8832939,6.20057232 C44.8041163,6.22241918 44.807205,6.22519928 44.7247358,6.24791729 C44.7088292,6.2523109 44.7009394,6.26718859 44.6850963,6.27158978 C44.0647682,6.4588183 42.9718718,6.73454027 42.7229419,6.83972943 C42.477513,6.94343385 41.1733069,7.37506849 39.8292569,7.81030134 C39.4664919,7.92776989 39.1743645,8.07378936 38.7788096,8.21273359 C37.7088286,8.58857691 36.5276692,8.99123642 35.9445839,9.25432295 C35.4312141,9.48595728 34.6483539,9.83365117 33.9229684,10.1538774 C33.7756229,10.2141457 33.6350885,10.2788227 33.4472942,10.3669298 C33.2272739,10.4636271 33.0017028,10.5687406 32.8130618,10.6509996 C32.0295274,10.9926636 31.0213486,11.6224957 30.2959523,12.1660387 C30.2909209,12.170046 30.2611843,12.1621071 30.2563128,12.1660387 C30.2513081,12.1700611 30.2416113,12.1855751 30.236493,12.1897112 C30.1262837,12.2733337 29.9704408,12.3727506 29.8797373,12.4501085 C29.1918578,13.0367392 28.082061,13.8271048 27.4022673,14.2255449 C26.7224737,14.6239775 25.5799752,15.551545 24.865338,16.2613787 C24.3638004,16.7595614 23.7244219,17.506809 23.1013794,18.2735399 C22.9697248,18.4109691 22.4986031,18.9411495 22.4473273,19.054732 C21.6204329,20.1230163 20.5663585,22.202112 20.1085956,22.9606921 C20.0464243,23.0637223 19.9765649,23.3057953 19.910398,23.4341418 C19.9039853,23.4448152 19.8969288,23.4472999 19.8905782,23.4578143 C19.5132284,24.0822755 19.0052628,25.2843378 18.7608519,26.1328051 C18.6337632,26.5739769 18.5163826,26.9546154 18.3842765,27.4111194 C17.621165,29.8593998 16.9761107,32.5358678 16.9176142,33.8973804 C16.911211,34.0464148 16.8874787,34.1327341 16.8779747,34.2524677 C16.8340192,34.7716716 16.5156879,35.2979052 15.9266262,36.0042316 C15.4099615,36.4799008 14.5801021,37.4112029 14.0833885,38.0874103 C13.4166435,39.2282802 13.3133138,39.7738609 13.0924005,41.2121784 L12.8545634,44.0055317 C12.8545634,44.0055317 12.453296,46.2507211 11.3284419,46.9409199 C10.7833775,47.258457 8.7650378,49.414303 7.20593175,51.2729984 C6.80531954,51.7505842 6.53698091,52.1080349 6.25458326,52.4802876 C6.19423289,52.5608649 5.09662916,54.4444524 5.0455779,55.1552785 C5.00695251,55.3411207 4.77615283,56.7890284 4.72846173,57.569872 C4.76472967,58.3770318 4.96354185,59.3386422 5.12485694,60.1028279 C5.39944148,61.4036026 5.70516556,61.9979752 6.75007727,63.3459585 C7.17230348,63.8906453 7.42243266,64.1449825 7.76088503,64.5295827 C7.98571025,64.7850789 8.34175812,65.2603315 8.43475688,65.3344472 C9.26952585,65.9997918 8.63675924,66.2752335 7.85998383,66.541744 C6.99377343,66.8070955 6.14962416,67.2469568 5.28341502,67.5123159 C4.72591022,67.7135131 4.45571646,68.0814858 4.35188629,68.2698354 C4.25894906,68.4141278 4.20666548,68.557049 4.15368869,68.6959402 C3.92747007,69.289025 4.02212036,69.8382569 4.53026413,70.2819967 C5.14332261,70.8173433 5.7845835,70.8225248 8.45457664,70.2819967 C9.69299009,70.0312956 10.3050852,69.9791253 10.4365527,70.0689443 C10.4449505,70.0761711 10.4494003,70.0846023 10.4563724,70.0926168 C10.4579517,70.1097444 10.428267,70.1196603 10.4167329,70.1399618 C10.3815045,70.1910792 10.304633,70.2695279 10.159076,70.3530142 C10.0636018,70.4137218 9.90320576,70.4739749 9.76268081,70.5423941 C9.54825637,70.644341 9.28734334,70.7661956 8.9698904,70.8974813 C8.11387464,71.2151017 7.12148942,71.4840211 6.31404254,71.5839834 C4.12303878,71.4630076 3.47861244,71.6096861 2.54828812,72.4125204 C2.38644154,72.5521767 2.22331826,72.7615248 2.05279411,72.9569876 C1.99186151,73.0224297 1.89022832,73.1206573 1.83477675,73.1937124 C1.5459575,73.5564204 0.920977357,74.4787004 0.784329466,74.7560965 C0.673040085,74.9307502 0.343983231,75.8876337 0.328474983,75.9160483 C-0.0996882831,76.7003007 -0.112377369,79.8221144 0.308655222,81.5974448 C0.379291579,81.8952939 0.383865028,82.1029906 0.407754023,82.3076194 C0.410869372,82.4052636 0.809571278,83.6187872 1.81495699,83.1598288 C2.41283258,82.9137941 3.62295927,82.3449802 3.95549109,81.8815146 C4.28802036,81.4180415 5.04403608,80.8659309 5.40233358,80.6742179 C5.55467618,80.5927163 5.88646404,80.3112827 6.15548446,80.1297507 C6.16641482,80.12238 6.1840858,80.1372274 6.19512398,80.1297507 C6.20433874,80.120312 6.24453766,80.0923141 6.25458326,80.0824057 C6.59572922,79.8492336 6.87052369,79.678966 7.20593175,79.4195761 C8.69101528,78.2710932 12.6903873,75.7361753 13.7068131,75.3005637 L14.4005047,74.9928213 C14.4322746,75.018221 14.4556138,75.1576955 14.4797837,75.2768912 L14.4203244,76.4841879 C14.2927683,79.4530509 15.7620518,82.137276 18.7410322,84.3907981 C21.1108057,86.1834757 23.8164319,87.2548431 27.0851512,87.7049461 C30.8262942,88.22012 35.6674923,88.3643896 36.7770139,87.9890159 C37.3147237,87.8070976 38.380291,87.6080063 39.1553851,87.5629112 C39.9304747,87.5178009 40.912841,87.4681682 41.3355587,87.4445487 C42.3886,87.3857425 46.3511041,86.9071568 48.4706705,86.5686668 C49.430524,86.4153751 51.5654261,86.1873239 53.2075931,86.0715446 C54.6204598,85.9719459 55.7232756,85.8723927 56.2994757,85.8111472 C56.9378623,85.785634 58.0003346,85.7611661 58.757126,85.7401298 C59.347203,85.7370921 59.6031982,85.7263581 60.3030673,85.7401298 C61.8954978,85.7714608 63.6048173,85.7601586 64.0886414,85.7164573 C64.5724783,85.672756 65.9948077,85.6191918 67.2598031,85.6217673 C68.5248048,85.6243505 69.8107743,85.6175934 70.1138485,85.5744224 C71.1383621,85.4284938 75.7098833,85.2144036 77.8039155,85.2193351 C78.9484194,85.2220394 80.5808319,85.0910567 81.4309316,84.9352653 C81.8376267,84.8607329 82.6432223,84.8014722 83.5714657,84.7695579 C83.6549433,84.7666944 83.7036333,84.7720274 83.789483,84.7695579 C84.7446115,84.7421129 85.8386242,84.7400449 86.8615458,84.7695579 C88.9989405,84.83122 90.8132508,84.8290913 90.9047769,84.7695579 C90.996322,84.7100093 92.6029403,84.6735271 94.4723337,84.6985404 C96.3417272,84.7235537 98.6610704,84.6840188 99.6254714,84.6038505 C103.544951,84.2780337 105.625055,84.1935324 108.564183,84.3197806 C108.60799,84.3216593 108.638908,84.3177959 108.683102,84.3197806 C108.744927,84.322538 108.799179,84.3405973 108.86148,84.3434531 C109.821904,84.3884649 110.864024,84.4438623 112.11192,84.532833 C115.235007,84.7554832 118.471247,85.1006469 119.306493,85.2903525 C120.141758,85.4800582 122.206229,85.7866036 123.884858,85.9768546 C125.563499,86.1671057 127.862674,86.4787416 128.998356,86.6870292 C130.896442,87.035117 135.113339,87.4526693 138.888416,87.7286186 C141.616002,87.9640253 143.895376,88.0924628 145.052362,87.9890159 C145.11151,87.9859555 145.260865,87.9932429 145.310018,87.9890159 L146.142448,87.8706535 C146.42394,87.8207481 146.712883,87.7205282 146.994698,87.6576011 C150.656052,86.8400027 154.331612,84.9901021 157.59827,82.1892569 C159.45756,80.595095 160.507747,78.9444523 160.987449,76.8629477 C161.167304,76.0824753 161.342892,75.4074572 161.364024,75.3715811 C161.385163,75.3357126 162.279076,75.7451519 163.346,76.294808 C165.750546,77.533557 167.108146,78.7296122 168.717155,80.9346152 C168.851777,81.1191091 168.969326,81.1843618 169.093731,81.313375 C169.206415,81.4839457 169.3415,81.6003158 169.490126,81.6921347 C169.545139,81.7259277 169.595548,81.742328 169.648684,81.7631522 C169.655565,81.7655914 169.661622,81.7846279 169.668504,81.7868247 C169.696683,81.8055127 169.724982,81.8327758 169.747783,81.8341697 C169.753573,81.8345181 169.759782,81.8407601 169.767602,81.8341697 C169.779038,81.8356241 169.795927,81.8334803 169.807242,81.8341697 C169.821975,81.8350711 169.832396,81.8343742 169.846882,81.8341697 C170.419898,81.8803632 170.880851,81.1072009 171.333364,79.4432486 C171.601625,78.4568597 174.285709,73.3916977 174.821641,72.8622976 C174.958807,72.7268001 175.391467,72.1264507 175.77299,71.512966 C176.506086,70.3341519 178.006509,69.1387785 179.04325,68.932665 C179.805407,68.7811611 180.071024,68.2052872 179.697302,67.4412985 C179.680673,67.4072858 179.429847,67.1602057 179.340547,67.0862112 C178.643976,66.51439 176.941017,66.5694844 174.883054,66.4388729 C173.890645,66.3758851 171.830069,66.3760896 171.075707,66.8021413 C170.698725,67.0150574 170.566608,67.5273981 170.679311,68.0804556 C170.719484,68.6194837 170.486213,69.0075989 170.223457,69.5718222 C170.064893,69.8322195 169.709082,70.7597491 168.736975,70.8264639 C164.995233,70.8457882 164.128782,70.3208272 164.456268,68.4355428 C164.579525,67.9108242 164.672529,66.8838853 165.637006,66.8914226 C166.378671,66.7011791 167.026507,66.5700298 168.215173,66.4043754 C169.631369,66.0326151 171.198925,65.0581041 172.666799,63.9672836 C174.779179,62.7572673 175.994185,61.2234493 177.587966,59.7737463 C179.291292,57.8542827 179.937645,55.3156605 179.959849,54.5420058 C180.21469,52.277636 179.19428,50.5020405 178.649792,50.0193945 C177.642136,49.1308089 175.617375,47.4220585 175.234666,47.1282697 C174.969265,46.7428816 174.621148,46.4809768 174.810625,45.6757638 C174.991533,44.9488329 175.234469,44.3700728 175.35335,43.4949711 C175.449119,42.7242404 175.563687,41.8213681 175.574792,41.6856281 C175.783271,38.9840332 175.513158,36.6600617 174.782002,34.6785724 C174.732138,34.5318106 174.677106,34.3872683 174.623444,34.2524677 C174.554008,34.0844347 174.521624,33.8945473 174.445066,33.731673 C174.14964,33.1031818 173.716428,32.0068389 173.434258,31.198717 C173.308826,30.7365998 173.09431,30.2569006 172.740567,29.683678 C171.21903,26.9363061 167.792622,23.1192333 165.03068,21.2326006 C164.58439,20.927752 162.900433,19.4578081 162.592849,19.1730944 C162.038708,18.6601703 160.480025,17.4728115 158.4307,16.0009813 C157.846293,15.5812625 156.114762,14.3084857 154.585666,13.1839556 C153.056583,12.0594102 151.197749,10.8016475 150.443336,10.3906023 C149.688898,9.97955701 148.87507,9.55131606 148.639738,9.42003035 C146.715389,8.34652669 143.390096,6.78627127 140.414538,5.49039775 C140.314411,5.43932579 140.125036,5.33943168 140.057782,5.30101787 C139.322314,4.88089753 137.695679,4.26520838 135.974911,3.69128885 C135.706473,3.59829575 135.298439,3.43867124 135.102842,3.38354654 C134.572858,3.23418641 134.484301,3.21503632 134.072214,3.09947671 C133.857368,3.03633746 133.665551,2.99157563 133.457802,2.93376932 C131.553291,2.40436921 130.261201,2.0822416 128.701059,1.77381752 C128.665504,1.76678774 128.638486,1.75734905 128.601961,1.75014504 C128.58346,1.74558477 128.581018,1.73102525 128.562321,1.72647255 C128.324446,1.67968057 128.234423,1.66397719 127.947909,1.60811013 C127.826206,1.58436946 127.731033,1.56028034 127.610973,1.53709267 C127.605721,1.53561551 127.596468,1.53856226 127.591153,1.53709267 C122.912833,0.63428846 119.447667,0.136976884 116.928122,0.0220535949 Z M111.041653,2.38930215 C111.509184,2.44704786 110.540584,2.80566519 108.088509,3.50190897 C103.869374,4.69988066 100.265418,6.13877388 97.7624139,7.54990399 C97.7602068,7.5501464 97.7442685,7.57362193 97.7425942,7.57357648 C97.7253304,7.57306137 96.8367899,8.07128197 96.5534085,8.26007856 C96.5311914,8.27488049 89.205288,12.4096115 87.9119931,13.0655931 C86.6187046,13.7215975 83.5095012,15.914518 82.6993962,16.2377062 C82.1639392,16.4513343 81.4632013,16.8462671 81.1336352,17.1372606 C80.804069,17.4282618 79.9306804,17.9116501 79.2111184,18.2025225 C78.7876415,18.3737219 78.6154474,18.485956 78.3192292,18.6286272 C77.6337319,18.9119017 77.0797617,19.1241208 76.6345496,19.2914568 C76.601227,19.2998047 76.5885487,19.307342 76.5552706,19.3151293 C76.0732286,19.4277649 74.9520644,19.7157056 74.038161,19.9542864 C72.2854346,20.4118585 70.7175616,20.4212366 69.9156509,19.9779589 C69.3924473,19.6887304 69.3320303,18.8018947 69.7570928,18.17885 C69.7822592,18.143739 69.8071274,18.0973485 69.8363719,18.0604876 C70.2772648,17.5158007 71.994303,16.2625756 72.8886149,15.8352739 C73.0731448,15.7471214 73.374513,15.5305162 73.5624868,15.3618242 C73.7504732,15.1931322 75.1345331,14.3860936 76.6147298,13.5863878 C78.0949393,12.7866972 79.4948169,11.9598343 79.7462519,11.7162614 C80.3713957,11.1106776 82.6748007,9.92154616 83.8885818,9.58573775 C84.4373069,9.43392326 86.9684964,8.54754207 87.3372201,8.37844099 C88.0392074,8.05651034 89.5474183,7.46411491 91.063335,6.91074689 C91.2380914,6.84649408 94.5896477,5.6812548 95.3642229,5.46672527 C96.3397293,5.1965332 97.4339387,4.84043842 97.8020534,4.68553324 C98.9508702,4.20209185 103.485003,3.21505147 104.302935,3.26518411 C104.731644,3.29146247 108.380751,2.66715274 109.178596,2.55500955 C109.561957,2.50111961 109.738382,2.48949168 110.011026,2.4603196 C110.342856,2.43205655 110.666384,2.40680842 111.041653,2.38930215 Z M67.3390821,3.17049417 C67.556034,3.23258805 67.3726393,3.36277535 66.7048498,3.57292642 C66.238651,3.71964281 65.1781004,4.14955787 64.3462983,4.51982585 C63.5145217,4.89009382 61.8056207,5.93232708 61.4129738,6.24791729 C61.1621857,6.37029457 60.778361,6.62691946 60.3625265,6.98176434 C59.8133701,7.45038108 58.35312,8.54121679 57.845417,8.89923567 C57.3377204,9.25724698 56.3188452,10.1163499 55.5859643,10.816707 C54.9453136,11.4289191 54.0864679,12.1625238 53.46525,12.6394884 C53.3076052,12.7365569 52.468833,13.3853648 52.0976866,13.6574053 C51.9759837,13.7483606 51.826603,13.8360132 51.7211111,13.9178026 C51.5424479,14.0563151 51.0875257,14.396964 50.8094021,14.6043047 C49.3549679,15.678172 47.4472795,17.0273597 46.528334,17.6343828 C45.970311,18.0029994 42.9573161,20.3543325 42.2670874,20.5934435 C39.4291318,21.5765978 38.4890359,18.8069852 40.6418671,15.787929 C42.3940354,13.3307477 44.6604056,11.1142076 46.5481537,10.0118425 C47.151556,9.65948228 48.0442126,9.05906472 48.5301297,8.6861833 C49.0160595,8.31330188 50.4716608,7.44038939 50.5319255,7.3841966 C51.0759637,7.0936424 51.6347287,6.81079976 52.2958842,6.50831463 C53.5012554,6.06578687 55.5084675,5.31071412 56.5174931,4.89858561 C56.957422,4.76917098 57.2627414,4.7128494 57.6472194,4.61451579 C59.0950386,4.24181618 63.0822606,3.52326344 65.4958444,3.24151163 C66.4917287,3.12526268 67.1221429,3.10840029 67.3390821,3.17049417 Z M120.832615,4.04637614 C121.607723,4.00627305 122.083936,4.02634732 122.656033,4.04637614 C122.802978,4.05510276 122.988954,4.05935245 123.131707,4.07004862 C123.552292,4.10158416 124.130984,4.14993663 124.657828,4.18841105 C125.433311,4.29341841 126.443002,4.41681834 128.027188,4.56717082 C131.734903,4.91907652 136.947856,6.3121701 137.382114,6.43729717 C137.816367,6.56242425 138.117253,6.72635148 138.055986,6.79238446 C137.942402,6.91481476 135.021552,7.16793992 132.843389,7.24216168 C131.056858,7.30304353 128.771345,7.60147592 128.106467,7.85764631 C127.785019,7.98150075 126.442736,8.31069602 125.113683,8.59149336 C123.751663,8.87926745 122.024388,9.46345137 121.169551,9.91715255 C118.104433,11.5439561 115.908207,12.6142706 115.283082,12.9945757 C112.634261,14.6060015 112.180861,14.9038355 111.497508,15.5275316 C109.627385,17.3906661 109.620167,17.9713124 109.436253,19.2441118 C109.293588,19.8659066 109.654207,20.7399554 110.149764,21.2089281 C110.706049,21.7353436 111.344157,21.8852113 112.250659,22.0848101 C113.810737,22.0467599 116.597687,21.1890054 117.146139,21.0432207 C117.694592,20.897421 118.565196,20.638122 119.088476,20.4750811 C119.611768,20.3120326 122.153264,19.6721255 122.992969,19.4808367 C123.832692,19.2895479 126.008464,18.3981216 126.421787,18.2498675 C126.82462,18.148928 127.202159,18.0671689 127.888449,17.8237627 C128.876127,17.4734705 130.883231,16.8417068 132.347895,16.4034136 C133.812572,15.9651128 135.776029,15.2549079 137.342475,15.0777544 C138.801304,14.9056687 139.932883,14.735901 145.329838,15.0777544 C147.905183,15.2408862 149.52238,15.3917614 150.95865,15.740584 C152.394907,16.0894142 153.641884,16.6315179 155.477555,17.5396929 C156.675677,18.1324444 157.994722,18.7363995 158.41088,18.8653521 C159.349709,19.1562396 159.681939,19.3759884 162.51357,21.7770678 C163.766414,22.8394132 164.839357,23.714977 164.891941,23.7182116 C164.944519,23.7214386 165.356834,24.0762684 165.80365,24.4994036 C169.293571,27.8043932 171.618299,30.8306838 171.967596,32.5243762 C172.042733,32.8887431 172.261829,33.4836005 172.46309,33.8263629 C172.664332,34.1691178 173.081441,35.3046472 173.374799,36.3593189 C173.543949,36.9674707 173.600142,37.3932497 173.672095,37.8506855 C173.728225,38.2231048 173.73477,38.5870702 173.771194,38.9632923 C173.791673,39.4971542 173.812901,40.0101464 173.771194,40.8807636 C173.629335,43.8413772 173.316348,44.8045103 172.027055,46.2780903 C171.797381,46.5405784 171.760792,46.6604635 171.61084,46.8699025 C171.046951,47.4445038 170.455237,47.9484133 169.94598,48.2665791 C169.174862,48.6385136 168.170231,49.026044 167.309952,49.2608371 C166.808503,49.397683 166.224413,49.4851159 165.565813,49.544907 C165.450757,49.5557698 165.330386,49.5827072 165.209058,49.5922519 C164.49039,49.6410513 163.702895,49.6397711 162.691948,49.6159244 C161.006844,49.5761698 159.150293,49.5957441 158.569438,49.6395969 C157.563406,49.715561 153.82545,49.4849644 149.571267,49.0951297 C148.491144,48.9961674 147.210718,48.7667087 146.737041,48.5743214 C145.860297,48.2182266 142.706362,47.588993 139.562288,47.1539723 C138.604103,47.0213912 137.24401,46.7425937 136.529865,46.5384877 C135.293676,46.1851654 132.907517,45.8115795 129.45421,45.3311909 C128.897354,45.2201613 128.097511,45.0870424 126.838002,44.9524311 C126.609704,44.9227667 126.54141,44.9121084 126.302869,44.8814137 C124.983456,44.7116763 122.830218,44.5172362 120.39658,44.313274 C120.293752,44.3042217 120.183154,44.2986312 120.079464,44.2896015 C119.898873,44.2746254 119.68825,44.25721 119.504691,44.2422566 C119.325856,44.2215308 119.212627,44.196669 118.850639,44.1712391 C118.556165,44.1473545 117.734916,44.0458318 117.681273,44.0528767 C117.649384,44.0570658 116.872474,44.0180232 116.591186,44.0055317 C111.001836,43.5650417 105.382405,43.2272031 104.67951,43.3427021 C104.651249,43.3473457 104.571862,43.3382328 104.540772,43.3427021 C104.268223,43.3417098 103.612471,43.3081062 103.470505,43.3190296 C102.805639,43.3702228 100.797647,43.3869337 98.991239,43.3663746 C98.088143,43.3561102 97.5469145,43.4088942 96.7317864,43.4373921 C96.4570306,43.4383238 96.2028937,43.4506638 95.9191762,43.4610645 C95.8088008,43.4354074 95.6805083,43.4264459 95.522781,43.4610645 C95.4211453,43.4833735 95.2952311,43.4910396 95.1858451,43.5084095 C95.0245788,43.5229615 94.5948738,43.5155984 94.4921535,43.532082 C93.824884,43.6391195 91.8394514,43.7158941 90.0921667,43.7214619 C88.3448757,43.7270372 86.1277961,43.8695418 85.1570465,44.0292042 C84.1863032,44.1888666 82.209401,44.4460066 80.7570597,44.5973439 C79.3047311,44.7486508 77.9082847,44.9026848 77.6651771,44.9524311 C77.4220695,45.002185 75.7477469,45.0858606 73.9390622,45.1181385 C67.1970331,45.2385084 63.683145,45.4855734 59.331899,46.1597279 C58.3009036,46.319466 55.9568254,46.6512823 54.1391219,46.893575 C49.5811161,47.5011359 46.1778699,48.101955 45.0418519,48.4796315 C44.6746631,48.5524064 44.2982989,48.6143715 43.8923078,48.6690114 C43.4420345,48.7148489 36.4894529,49.8563308 35.0725145,49.8999942 C34.288316,49.9241591 33.0057974,50.0160614 32.218469,50.1130466 C31.4311413,50.2100318 27.3471766,50.7304175 26.9067733,50.7522037 C25.5855659,50.8175777 23.6337216,50.2385373 20.7626477,48.9530948 C19.6720522,48.4648144 19.0366783,48.1419217 18.503195,47.8168019 C18.3720022,47.7404591 18.2371675,47.6491931 18.1266196,47.580077 C17.6438324,47.2466169 17.2866727,46.9162475 16.8383352,46.3964528 C15.332249,44.6503096 14.6233543,42.4013099 14.9356382,40.7387287 C14.9659114,40.6075945 14.9727947,40.4639158 15.0149172,40.3362965 C15.016747,40.3307438 15.013064,40.318169 15.0149172,40.312624 C15.094991,40.0732705 15.209435,39.8505749 15.3320334,39.6261219 C15.8430521,38.7799423 16.7760726,37.6726532 16.9770735,37.6849781 C17.0627729,37.6902277 17.2254224,38.3194916 17.3338292,39.0816547 C17.4422379,39.8438103 17.6025521,40.7059205 17.6905849,40.9991261 C18.1596992,42.5615934 18.463468,43.8540127 18.4437357,44.313274 C18.4167111,44.9422804 19.2985509,45.0887998 19.7320202,44.5263264 C19.8468695,44.377292 19.9010152,44.0643001 19.9302178,43.6741169 C19.9479084,43.5790179 20.0130637,41.8018316 19.7914794,41.3778858 C19.7893402,41.3737876 19.6549191,40.491338 19.5536423,40.0522266 C18.9779084,37.5558967 18.7306028,35.0078586 18.8599507,33.3292407 C18.8761477,33.2227335 18.8807827,33.1386337 18.8995902,33.0214984 C18.9483697,32.7177028 19.4565623,30.7757484 19.5734621,29.9914203 C19.6597075,29.4127511 19.7695604,28.8583301 19.8905782,28.3343463 C19.9979798,27.8693202 20.1299445,27.4379204 20.2671537,27.0086871 C20.2908587,26.9345259 20.3019794,26.8451689 20.326613,26.7719622 C20.6413894,25.8365089 21.0360475,24.9884052 21.5157986,24.1679888 C22.0215652,23.3031061 22.439348,22.5035215 22.4473273,22.3925524 C22.4783876,21.960539 24.5056015,19.3219243 25.697768,18.1551775 C26.3880138,17.4796519 27.6611971,16.4018076 28.5319937,15.7642565 C29.4027883,15.1267129 30.6232041,14.1853206 31.2473008,13.6810777 C31.5379054,13.4462921 31.966063,13.1614496 32.4166666,12.8998857 C32.4641681,12.8723044 32.5072953,12.8560708 32.555405,12.8288683 C33.0310234,12.5599261 33.5264089,12.3075812 33.9427882,12.1423662 C34.2916458,12.0039446 34.7545523,11.7719088 35.2112528,11.5742265 C35.8778329,11.2856873 36.5632586,11.0150559 37.0743103,10.769362 C37.9355064,10.355317 39.3903403,9.81675848 40.3049312,9.56206526 C41.2195221,9.3073872 42.371203,8.93209687 42.8616802,8.73352827 C43.746466,8.37532758 45.4057998,8.02167959 45.3986076,8.1890611 C45.3965527,8.23702724 44.8075475,8.73728557 44.0905054,9.30166792 C42.7208933,10.379694 41.0688107,12.1964379 39.8490767,13.8231127 C39.8234157,13.8566253 39.7751823,13.8844869 39.7499779,13.9178026 C39.740654,13.930385 39.7394211,13.9525879 39.7301581,13.9651476 C39.4681897,14.3201591 39.2611262,14.6129025 39.0562863,14.9357195 C38.9592202,15.0879733 38.8199688,15.26696 38.7391701,15.4091692 C38.6832194,15.5076467 38.6890664,15.5561431 38.6400713,15.645894 C38.5986179,15.7245018 38.5168083,15.8322742 38.4815132,15.9062914 C38.4136193,16.0486823 38.3817187,16.191952 38.3229552,16.3323961 C38.2234784,16.5623791 38.1016075,16.8650687 38.0454785,17.0899157 C37.6197031,18.4696769 37.6602008,19.7424688 38.1643971,20.8775133 C38.2075686,20.9918382 38.2512812,21.1044965 38.3031354,21.2089281 C38.3247754,21.249213 38.3397236,21.2873844 38.3625947,21.3272906 C38.460661,21.4983612 38.5623779,21.6155268 38.6598911,21.7533953 C38.9047967,22.0996499 39.1489261,22.3837349 39.4526815,22.5582598 L39.6706989,22.6292773 C40.0284389,22.7867959 40.4373995,22.9026206 40.9986228,22.9370196 C42.4895952,23.0284067 43.2637138,22.7263686 44.7247358,21.5403429 C45.4407714,20.9590906 46.7561819,19.9842842 47.6382405,19.3624743 C49.3158802,18.1797969 51.6394093,16.447577 53.3265117,15.1250994 C53.8729282,14.6967902 54.6987748,14.0954485 55.1697494,13.7757677 C55.6407303,13.4560793 56.4718093,12.7256108 57.0129871,12.1660387 C57.1522264,12.0220645 57.2719505,11.9343437 57.4093823,11.8109514 C57.548888,11.6865288 57.6997909,11.5575005 57.845417,11.4321916 C58.0499823,11.2818543 62.1039065,8.2499278 64.5246762,6.79238446 C64.6772915,6.71042842 64.8529738,6.58308181 65.0003504,6.50831463 C65.0159715,6.50039098 65.0244386,6.49249005 65.0399899,6.48464215 C65.0606025,6.47426413 65.098631,6.47128708 65.119269,6.46096966 C65.5059033,6.26756735 65.8922904,6.08788371 66.2886348,5.91650249 C67.5277979,5.42368301 69.1238689,4.96016438 71.0453772,4.51982585 C72.8380413,4.10901543 73.9162426,4.02386265 76.357073,4.14106608 C78.0404143,4.22190856 79.765596,4.37951808 80.1822867,4.49615336 C80.5989773,4.61278864 81.2706991,4.78628334 81.6885884,4.87491313 C82.4972473,5.04641555 84.9417563,5.687974 85.7516393,5.94017498 C86.4199045,6.1482656 86.3482299,6.56173491 85.612901,6.721367 C83.8465132,7.10483097 79.8494352,8.98141139 78.5174268,10.0591875 C78.2841435,10.2479462 78.2270499,10.2428026 78.0219328,10.3906023 C77.532927,10.7013292 77.0502572,10.9996783 76.6543694,11.1954668 C76.2738871,11.3485766 75.7112152,11.6748782 74.9300502,12.1423662 C73.297625,13.1192937 71.1283348,14.5473316 69.4399767,15.8352739 C69.0062632,16.1661206 68.5010274,16.8695835 68.1120527,17.6343828 C67.9471714,17.9161498 67.8477174,18.2201197 67.7552971,18.5102648 C67.7243656,18.5937131 67.6823667,18.6662153 67.6561983,18.7469897 C67.639797,18.8120227 67.6100579,18.8704199 67.596739,18.9363695 C67.5822531,19.0081218 67.5864264,19.0796998 67.5769192,19.1494219 C67.5421887,19.3057436 67.483389,19.4932676 67.4778204,19.6228716 C67.4604044,20.0282052 67.6335054,20.3941856 67.8940354,20.7591509 C67.907849,20.778498 67.9191954,20.8110183 67.9336749,20.8301684 C68.0524159,20.9949743 68.1997924,21.1424104 68.3697096,21.2799456 C69.0781915,21.8996042 70.1238631,22.3471164 71.3030341,22.4162249 C72.0892349,22.4622972 73.2731183,22.2909918 74.5534748,22.0137927 C76.4079638,21.6122846 78.4811107,20.9840812 80.0435484,20.2383562 C80.4125891,20.0622329 93.9086598,11.7317603 94.3534152,11.6215715 C94.6322174,11.5525084 100.376529,8.49851541 101.052494,8.1890611 C102.228152,7.65087377 107.949701,5.66568777 109.436253,5.2536729 C109.762527,5.17214107 110.029437,5.06825484 110.387601,4.99327556 C111.096705,4.88323069 113.846311,4.51856836 115.342541,4.33044596 C115.705969,4.28475996 116.600617,4.21139419 117.324517,4.18841105 C118.048436,4.16542791 119.625068,4.10885635 120.832615,4.04637614 Z M135.182121,9.1833055 C135.637614,9.113644 136.525793,9.11568173 137.600132,9.1833055 C138.674477,9.25093684 139.922608,9.39159307 141.06859,9.56206526 C143.677688,9.95017282 145.807504,10.4356216 146.955059,11.1481218 C147.541831,11.5124508 150.130508,12.9931667 150.12622,13.0892656 C150.122459,13.1737972 148.026956,13.1264371 145.448757,12.9945757 C145.441184,12.9941818 145.436516,12.994962 145.428937,12.9945757 C143.101679,12.8312166 140.653421,12.7022489 139.582108,12.7578508 C139.338074,12.7705165 139.08929,12.8088092 138.848777,12.8288683 C135.682657,12.9982724 132.992079,13.7994932 126.877642,15.9062914 C124.75838,16.5788551 122.983817,17.1194438 121.585766,17.5396929 C119.356255,18.1219073 116.860957,18.8640264 115.283082,19.4098192 C114.292214,19.752559 113.733265,19.9190163 113.301106,19.9542864 C113.102877,19.9597709 112.91333,19.9503776 112.726333,19.9069414 C112.699778,19.9007752 112.311811,19.7479002 112.11192,19.6465441 C111.287989,19.2287721 111.373484,18.3635408 112.310118,17.6107103 C113.888145,16.3423499 116.464276,14.576731 117.245238,14.2255449 C117.307031,14.1971682 117.379334,14.159012 117.443436,14.130855 C117.78027,13.9829266 118.389647,13.6576704 118.929918,13.3733354 C119.079051,13.2948716 119.212684,13.2571395 119.346133,13.1839556 C119.806934,12.9544347 119.909274,12.9185813 120.456039,12.6394884 C121.934302,11.884908 123.692432,11.1560303 124.360532,11.0297594 C125.028639,10.9034884 126.353189,10.548386 127.313676,10.2485673 C128.274164,9.94874869 130.266662,9.62421974 131.733483,9.51472029 C133.200323,9.40521327 134.757629,9.24821735 135.182121,9.1833055 Z M107.315538,45.3548634 C107.583165,45.2787024 110.758278,45.5698702 113.063269,45.7336232 C115.357186,45.8965959 116.737789,46.012807 117.582174,46.2070729 C118.784989,46.2667881 117.50807,47.4883111 115.848062,47.7641997 C114.540034,48.0860774 113.884765,47.9913874 112.419491,48.0131964 C110.712157,47.7844861 109.698064,47.445034 108.905762,47.0952342 C108.030331,46.631405 107.181633,46.1575159 106.898588,45.9507737 C106.421962,45.6026177 106.507038,45.22029 107.315538,45.3548634 Z M102.320959,45.4022084 C102.856048,45.4093063 103.464847,45.4131242 103.747981,45.4495533 C103.936634,45.4756726 104.091431,45.5178134 104.223656,45.5679158 C104.29162,45.6119579 104.367379,45.647781 104.421853,45.7099507 C105.141384,46.5310716 106.089694,47.3118469 107.148659,47.8024848 C108.071607,48.2470351 109.393309,48.8058345 110.72429,49.0127116 C112.067543,49.2463988 114.048485,49.1259532 115.498404,49.0097876 C116.889231,48.6280977 117.954988,48.5332714 119.465051,47.2960072 L120.674057,46.3254353 L122.755131,46.6095051 C123.906663,46.7709856 124.896883,46.9585323 124.955125,47.0356099 C125.012263,47.111233 124.886545,47.3741908 124.677648,47.627422 C124.454589,47.8431333 121.429364,49.8860862 119.752802,50.6265312 C119.532191,50.7239482 116.714918,51.9414261 113.664711,52.5223754 C110.183397,52.8442454 108.671032,52.2234809 105.888516,51.1309635 C105.168129,50.8239636 102.914537,49.6595575 102.499337,49.3791996 C101.048283,48.3993723 98.4311104,45.8818016 98.6344834,45.6626057 C98.6861416,45.6069356 99.1942632,45.5374332 99.7840294,45.5205708 C100.34197,45.504625 101.459164,45.4517198 102.320959,45.4022084 Z M90.6669398,45.7336232 C91.5024267,45.7300098 91.9591818,45.7333732 92.1534218,45.7809681 C92.3476745,45.8285631 92.2774967,45.9065043 92.0741428,46.065038 C91.170609,46.7694251 91.0563394,46.9623123 91.0236955,47.7221119 C90.9726715,48.9098632 92.0395327,50.1075319 93.2435086,50.2077366 C93.8403149,50.2574147 93.8419258,50.2712621 93.045311,50.6101688 C92.5940864,50.8021243 90.8588395,51.2106015 89.1804578,51.5097233 C86.4599182,51.9945888 85.6665951,52.0307376 81.9660651,51.7937931 C79.8106329,51.655773 78.4246323,51.5357289 77.3282412,51.4150333 C76.376582,51.2835961 75.7133398,51.1600598 75.3264454,51.059946 C75.2252473,51.0196763 75.0815049,50.9843759 75.0489688,50.9415836 C74.8282052,50.6511885 77.9446009,47.230353 78.6958047,46.9409199 C79.0211088,46.8155732 79.3335316,46.7510476 79.3696765,46.798885 C79.4058277,46.8467224 79.2657322,47.3620932 79.0723801,47.9351643 C79.0442963,48.0184309 79.0365967,48.0706543 79.0129208,48.1482167 C78.6576873,49.3116819 78.7898359,49.8827077 79.5876939,50.6101688 C80.3930611,51.3444704 81.0412021,51.4255931 82.3426405,50.9652561 C83.3797119,50.5984424 83.9002454,50.0459228 83.9480411,49.2371647 C83.9745964,48.7878435 84.0233245,48.8217425 84.3444363,49.4738895 C85.2045949,51.220669 86.3733265,51.6490993 87.9912722,50.7995487 C88.985685,50.2773981 89.5955819,49.6193105 89.8146901,48.9057499 C89.9778464,48.3577466 89.9338306,47.7588895 89.6164925,47.1539723 C89.5163789,46.9631228 89.3702328,46.8106644 89.2200973,46.7041951 C89.2013938,46.6867797 89.1783268,46.6425633 89.160638,46.6331776 C89.0766974,46.5886733 88.9953317,46.5852418 88.9029811,46.5858326 C88.5333949,46.4806056 88.1578723,46.5846736 88.0507314,46.9882649 C87.9764755,47.2680169 87.794121,47.4279444 87.6345165,47.3433522 C87.3415392,47.1880682 86.5390704,47.8910918 86.3462321,48.4796315 C86.2080138,48.9015002 85.9370571,48.6812074 85.8507381,48.2902516 C85.8451759,48.2498607 85.8353643,48.1932285 85.8309183,48.1482167 C85.8199778,48.0300285 85.8183034,47.9196049 85.8507381,47.7931294 C85.9699801,47.328073 85.7850253,46.9035969 85.4939824,46.7278676 C85.4847226,46.7205423 85.4637866,46.6855146 85.4543429,46.6805226 C85.4437385,46.6748866 85.4453558,46.6851435 85.4345231,46.6805226 C85.39163,46.6616528 85.3419632,46.663342 85.2957848,46.6568501 C85.2319113,46.6519717 85.1623486,46.6358668 85.0975872,46.6568501 C85.0762389,46.6623194 85.0596855,46.6484568 85.0381279,46.6568501 C85.0099743,46.6678114 84.9703919,46.7277312 84.9390291,46.75154 C84.7487087,46.872781 84.6034251,47.0643274 84.5228141,47.3196797 C84.4947811,47.3782738 84.4465287,47.4251643 84.4237153,47.4853871 C84.2998181,47.8125295 84.2395279,47.9752447 84.1858782,48.0061818 C84.1738532,47.9986899 84.1588155,47.9932964 84.1462387,47.9825093 C84.1018868,47.9593065 84.0721604,47.8633969 84.0075004,47.627422 C83.921378,47.3130893 83.737514,46.9742659 83.6111052,46.8699025 C83.1698444,46.505581 83.6718583,46.2198522 84.6219129,46.2780903 C85.1485097,46.3103682 85.6421264,46.2331012 85.7119998,46.1123829 C85.8475542,45.8781882 87.639324,45.7467737 90.6669398,45.7336232 Z M96.018275,45.7336232 C96.2180011,45.8048679 96.7860133,46.33901 97.2669199,46.9409199 L97.7227744,47.5090596 C97.7334422,47.6063554 97.7238843,47.7006363 97.6831349,47.7931294 L97.1281816,48.3139241 C96.7731066,48.6234163 96.2871388,49.001364 95.9984553,49.1661472 C94.9913831,49.7409833 94.4103058,49.8365217 94.5714325,49.4028721 C94.6502359,49.1908045 94.9863537,49.001614 95.3047637,48.9767673 C95.378398,48.9710253 95.4497936,48.9085375 95.522781,48.8820774 C95.8006319,48.7813364 96.0648467,48.568943 96.2362924,48.2429066 C96.2613319,48.1952889 96.254812,48.1910393 96.2759319,48.1482167 C96.3998482,47.9558673 96.4893067,47.749716 96.4939493,47.580077 C96.498725,47.4057415 96.4314013,47.1396627 96.3353912,46.893575 C96.3235691,46.8598123 96.3289347,46.8590775 96.3155714,46.8225575 C96.1623599,46.4040355 96.0013918,45.9528114 95.9588157,45.8283131 C95.9275164,45.7367366 95.951706,45.7098825 96.018275,45.7336232 Z M93.1840493,45.7572956 C93.6923802,45.78846 93.7459601,45.8420772 93.5011655,46.1597279 C93.147156,46.6190953 93.1598914,46.6126337 92.8471134,46.1123829 C92.6308275,45.7664768 92.6757248,45.7261313 93.1840493,45.7572956 Z M13.7662724,45.9940205 C13.7998271,45.9734917 13.9997225,46.0007245 14.0635688,46.065038 C14.3653111,46.3690078 14.6442846,47.3099153 14.6581616,48.2429066 C14.6794191,49.671943 14.991027,51.0284635 15.4905915,52.2435627 C15.8679103,53.1613128 16.3401298,54.0112422 16.937434,54.6581563 C17.5007097,55.2682246 18.6075985,55.8596126 19.6923806,56.2678853 C19.7560557,56.2936031 19.8057103,56.3139955 19.8707585,56.3389027 C19.9670673,56.3757864 20.0542863,56.4022389 20.1482351,56.4335927 C20.3879502,56.5099582 20.5979173,56.5748398 20.822107,56.6229726 C20.9351563,56.6449937 21.0472683,56.6572655 21.1590429,56.6703175 C21.3667768,56.7003153 21.5994779,56.7469179 21.7734555,56.741335 C23.411564,56.6887707 26.0801555,55.2695806 26.9265931,53.9953267 C27.535316,53.0789401 28.4362639,52.5343215 29.4833421,52.4092701 C29.8323691,52.367599 33.0805189,52.1086864 35.7067468,52.0068379 L36.7968336,51.9594929 C37.0015524,51.9848319 37.1151846,52.0133753 37.1932288,52.0541829 L37.0346708,52.6696675 C36.4505967,54.9476121 35.4717663,57.0321316 34.4977415,58.0433217 C33.8733118,58.5650633 33.2361887,58.9914635 32.634684,59.3216359 C30.4518974,60.5874359 27.6367208,61.1184041 24.9644368,61.0023824 C21.4707858,60.8507043 20.7835108,60.5795729 18.7806717,59.2032735 C15.185761,56.7329417 13.5163943,53.2619266 13.5680748,48.3849415 C13.5813943,47.1279136 13.6747266,46.0648334 13.7662724,45.9940205 Z M81.7678675,46.6095051 C82.3318459,46.6440707 82.4731846,46.7612742 82.3624603,47.0592823 C82.2833779,47.2721302 82.3268989,47.6251116 82.4615591,47.8404744 C82.5962256,48.0558448 82.6710904,48.4218479 82.6201172,48.6690114 C82.5477132,49.020052 82.4688845,48.9700481 82.2831812,48.408614 C82.1424958,47.9832971 82.0192645,47.7665405 81.8273268,47.7221119 C81.7396441,47.6954094 81.6332073,47.7044239 81.4903908,47.7694569 C81.3554199,47.8309221 81.1949527,47.937596 80.9948968,48.0771992 C80.9915735,48.0795248 80.9784322,48.0748585 80.9750771,48.0771992 L80.9552573,48.1008717 C80.4155383,48.4767529 80.3887166,48.4658977 80.5786819,47.9825093 C80.6889812,47.7018407 80.8443618,47.2830763 80.9156178,47.0356099 C81.0058437,46.7222998 81.2579066,46.5782499 81.7678675,46.6095051 Z M174.365787,47.0592823 C174.450565,47.0644865 174.819802,48.2949482 175.257676,49.9946842 C175.685542,51.6555837 175.669654,52.4395255 175.313222,53.8816381 C174.7999,55.3504988 174.205567,56.0836414 173.377735,56.702906 C172.467047,57.3349273 171.312307,57.7444348 170.619852,57.8776143 C170.604662,57.8805232 170.574917,57.8988703 170.560393,57.9012868 C170.551526,57.9032563 170.549421,57.89934 170.540573,57.9012868 C167.809131,58.3454887 163.686329,57.7738644 162.057716,56.7176625 C161.530218,56.3755667 160.422208,55.6974882 159.600066,55.2026234 C158.07539,54.2849037 156.094981,52.5636981 156.111788,52.1725453 C156.121251,51.9522283 156.247583,51.9184354 157.221694,51.888483 C157.523304,51.8791958 158.669862,51.8532432 159.778443,51.8174656 L161.284745,51.7701206 C161.594828,51.8095798 161.82187,51.8572051 161.998257,51.9121555 L163.782035,53.2378071 C165.073395,54.3892596 165.86115,54.7294843 167.270313,54.8475361 C170.397015,55.1094864 172.359418,53.8014623 172.998223,51.059946 C173.179684,50.2811251 173.291695,49.2559587 173.236061,48.7637013 C173.230828,48.7173866 173.220528,47.8680784 173.711735,47.4617146 C174.027811,47.2411401 174.319729,47.0564568 174.365787,47.0592823 Z M74.1372598,47.1302998 C74.9327457,47.1321027 75.0539792,47.1793416 75.0489688,47.2960072 C75.0471739,47.3260504 74.9838458,47.4001207 74.9696898,47.4380421 C74.7454125,47.9683512 73.1081989,49.4099624 70.985918,50.9179111 C68.5913611,52.6193076 67.7639353,52.9097633 63.5535079,53.5928944 C62.7799474,53.6736763 61.8628665,53.7620107 60.818381,53.7822743 C59.3347594,53.7632606 57.8986101,53.5511702 56.933708,53.1667897 C55.5535297,52.6169744 53.9971743,51.8614017 53.0093955,51.2729984 C52.9243133,51.2223052 52.8273391,51.1548102 52.7517386,51.107291 C52.4471803,50.9158582 51.1995375,50.0881924 51.067059,49.8763218 C50.8745315,49.5683901 50.915338,49.4474748 51.2850764,49.3318546 C51.5880999,49.2371116 52.0719811,49.4287035 52.6724596,49.8999942 C54.0004406,50.9422578 56.1560758,51.444516 58.340911,51.201981 C58.7706224,51.1542724 59.153889,51.0714225 59.5300966,50.9889286 C59.752154,50.9402504 59.9573599,50.8857393 60.1643289,50.8232212 C60.3593934,50.7705812 60.6171518,50.7358868 60.7787415,50.6575138 C60.8721322,50.6122368 60.9786388,50.5445903 61.0760379,50.4918064 C61.9679905,50.0874652 62.7419442,49.5038191 63.5535079,48.6690114 C64.1323844,48.0735859 64.6618796,47.6593666 64.9012516,47.5327321 C65.2317374,47.4714866 65.8660078,47.415968 66.5859312,47.3670247 C67.3443716,47.343087 67.8289695,47.3490942 69.1426803,47.2960072 C71.8767226,47.1855154 73.3417803,47.1284969 74.1372598,47.1302998 Z M92.8471134,47.3433522 C92.8863343,47.3283381 92.9408529,47.39703 93.0254912,47.5090596 C93.0788682,47.5797058 93.1181082,47.6546018 93.1444098,47.7457844 C93.152991,47.8825697 93.157735,48.0358841 93.1444098,48.1245442 C93.0136628,48.4434145 92.7661473,48.0806459 92.7876541,47.580077 C92.7939711,47.4332243 92.8078988,47.3583814 92.8471134,47.3433522 Z M128.423583,47.3906971 C128.724291,47.4224978 131.347679,51.4324563 132.883029,52.8117024 C134.410787,54.0647003 137.184957,55.6039724 138.531661,56.1021779 C139.779557,56.563833 140.633075,56.8196625 141.128049,56.9307149 C142.855413,57.5275645 144.154688,57.6733795 145.507493,57.6544793 C146.638374,57.5421846 148.007351,57.3041417 149.135746,57.1453656 C150.103648,56.9970206 151.37444,56.6412667 152.082548,56.4581287 C152.819158,56.1781344 153.769948,55.8249939 154.591469,55.6548626 C154.958614,55.9759979 155.031608,56.4503036 154.778035,56.6238361 C154.579482,56.7597503 153.573292,57.1203902 152.373978,57.4678644 C151.477636,57.7664104 150.471883,58.1128317 149.350345,58.3703429 C148.113668,58.6951673 146.809673,58.819711 145.50873,58.8749342 C144.174793,58.8773583 143.000309,58.64558 141.988017,58.5078554 C139.987496,58.2982043 137.600297,57.2400253 136.197711,56.6438801 C135.001891,55.9561205 133.62692,54.8811624 132.684831,54.2320515 C131.100887,52.8500556 130.443911,52.1873093 129.196553,50.1840641 C128.469971,48.8283556 127.803767,48.0165598 128.423583,47.3906971 Z M62.0075666,47.8404744 C62.0278621,47.8777065 61.7397493,48.2891077 61.3931541,48.5506489 C60.9508531,48.8592306 60.1412873,49.2344906 59.1733409,49.4738895 C57.822369,49.7599971 54.5638038,49.3594132 54.5751566,49.0951297 C54.5851204,48.8632151 55.5212536,48.5929867 57.5877601,48.3139241 C58.3754893,48.2075456 59.5248832,48.1002051 59.7679337,48.0298543 C59.9575565,47.974972 61.9872712,47.8032271 62.0075666,47.8404744 Z M132.228977,47.9114918 L133.537081,47.9351643 L133.437982,49.0004398 C133.39793,49.3863203 133.40596,49.7153034 133.457802,49.9946842 C133.472136,50.0892832 133.507773,50.1856473 133.556901,50.278754 C133.572979,50.3092366 133.576441,50.3414766 133.59654,50.373444 C133.631785,50.4556424 133.648541,50.5372121 133.695639,50.6101688 C133.897261,50.9224714 134.034617,51.2280699 133.992935,51.2729984 C133.777055,51.5056781 131.691712,49.3868429 131.17853,48.408614 C130.92275,47.921029 130.978296,47.8797139 132.228977,47.9114918 Z M177.018083,49.7380972 C177.419958,50.103661 177.554688,50.381504 177.934327,50.7330764 C178.304902,51.1619157 178.47846,51.5759077 178.847989,52.425072 C179.076624,53.3496019 179.105177,54.2966982 178.745954,55.4630208 C178.55928,56.0690819 178.047892,57.1475094 177.616228,57.6408894 C177.390492,57.8988703 175.969335,59.5240376 175.436054,59.960793 C175.203976,60.0784888 173.634923,61.6531523 172.542369,62.2096792 C166.653598,65.791383 164.274428,64.8151449 161.918977,64.8609975 C160.453672,64.7123873 159.888419,64.6143189 154.942422,64.2691854 C151.879188,64.0554285 148.589165,63.8097119 147.62893,63.7247182 C145.149811,63.5052875 140.020477,62.5485479 138.492021,62.0202993 C136.949936,61.4873312 134.687984,61.0109575 132.308256,60.5762776 C132.221842,60.5403939 131.843433,60.4793076 131.594744,60.4342427 C131.378719,60.3969046 131.178225,60.351658 130.960512,60.3158803 C130.947618,60.3141153 130.933912,60.3176756 130.920873,60.3158803 C127.52648,59.7603003 124.001284,59.3707459 121.625405,59.4163259 C120.306316,59.4416497 118.475991,59.4150608 117.364157,59.3453084 C117.34102,59.3438615 117.287503,59.3467931 117.265058,59.3453084 C116.929378,59.3178332 116.591808,59.2777755 116.23443,59.2506185 C116.130981,59.2427478 116.0443,59.2347787 115.937134,59.226946 C114.2942,59.0932968 112.194199,58.898334 110.050665,58.6824788 C107.467018,58.4223163 105.234375,58.1744786 105.095725,58.1143392 C105.082508,58.1086047 104.542903,58.1196191 104.481313,58.1143392 C104.44369,58.1111197 104.159243,58.1173768 104.104737,58.1143392 C102.745717,58.0408976 99.3857252,58.0089758 96.9498037,58.0196492 C94.3890019,58.0118543 91.6307953,58.004923 91.0236955,57.9486318 C90.2436468,57.8763114 88.5103342,57.9198233 87.178662,58.0669942 C85.8469898,58.2141727 83.1780196,58.2865991 81.2525537,58.2327016 C74.8183239,58.0525862 75.3298005,58.0084531 66.5066522,59.960793 C64.3170729,60.4452874 61.9399575,60.8784901 61.2147762,60.9313649 C60.4895886,60.9842474 59.4865756,61.2035038 58.9949631,61.4284871 C58.085531,61.8446835 55.1840513,62.539988 52.7913782,62.8961812 C52.0638122,63.0044838 51.0246987,63.2355424 50.4724662,63.4169759 C49.6364275,63.6916298 47.8273559,63.9880396 43.6346509,64.5532552 C39.2212546,65.1482338 35.8411838,65.115062 25.4004716,64.3638753 C23.6287353,64.4731248 23.0549967,64.4323172 22.3482285,64.5059102 C22.246693,64.5725341 20.9709112,64.5337112 20.0293166,64.7189626 C19.9353303,64.7383097 19.2101846,64.8497181 18.91941,64.9083425 C17.9463923,65.0824659 16.902106,65.274232 16.2239226,65.3581197 C15.5703576,65.4389774 14.7853099,65.5610895 14.4401442,65.6421896 C13.13152,65.7799142 12.6519217,65.9020869 11.7842963,65.5474996 C10.4250832,64.9943285 7.31435503,62.0064821 6.63115871,59.1085835 C6.47096557,58.4291188 6.39886668,58.016354 6.37350182,57.617217 C6.3717672,57.5729627 6.37449884,57.5192167 6.37350182,57.475182 C6.37262088,57.3637964 6.38899549,57.255668 6.39332158,57.1437672 C6.40897444,56.8207079 6.43235985,56.5216165 6.53205991,56.0785054 C6.69134038,55.3705882 7.01533606,54.4712989 7.26539103,54.0189992 C7.29986156,53.962011 7.34695775,53.8879786 7.38430959,53.8296193 C7.91313758,53.0098695 10.766115,49.7938355 11.3086221,49.3791996 C11.4415572,49.3047127 11.5272597,49.2908728 11.5860987,49.3555271 C11.6343626,49.5021677 11.6846692,49.696926 11.7248371,50.1130466 C12.1855219,54.88595 14.2941344,58.6856074 17.7500441,60.9550374 C20.1341932,62.5206712 21.124566,62.8208156 24.9644368,63.1802511 C27.4263808,63.4107037 28.1465459,63.0801903 29.9788361,62.6831289 C30.8189327,62.3836965 31.6588764,62.1784921 33.1698175,61.3811422 C34.2424458,60.8151008 34.579891,60.6458558 34.7752181,60.7656575 C34.8078563,60.7974582 34.8363346,60.8383491 34.8743169,60.88402 C34.9095219,60.9340163 34.9576018,60.9730967 34.9932355,61.0497274 C35.1251754,61.333479 35.8944923,61.8442139 36.7770139,62.2333516 C38.0584961,62.7984006 38.8457155,62.9626839 41.1770006,63.1092336 C43.7649729,63.2719185 44.0760081,63.1096578 45.8941016,62.6121114 C46.9238222,62.2511761 48.570746,61.4435466 49.5607573,60.8130025 C50.5507622,60.1824508 54.3922313,56.6160337 55.1102901,55.6050557 L55.5463248,55.0132435 L57.2111847,55.5340382 C58.6624034,55.9903756 59.2058326,56.034342 61.5715319,55.8891255 C65.2881524,55.6609758 67.0167526,55.3233417 69.5192557,54.350414 C70.5272285,53.9585491 70.6306908,53.9603141 72.0363653,54.4924489 C72.2900836,54.5885023 72.6312371,54.6682389 72.8886149,54.7528462 C73.1030108,54.8566946 74.9319593,55.3397193 75.4850035,55.4156758 C76.5612831,55.6372124 77.7709354,55.8591353 79.7066124,56.1731953 C80.4791328,56.2985421 81.1834414,56.405466 81.886786,56.4809377 C82.2670781,56.5372668 82.7156199,56.5641663 83.21471,56.5756276 C85.1657291,56.7031787 86.895528,56.6381457 88.4669464,56.3389027 C89.3780592,56.1654156 90.7121859,55.9299331 91.4399104,55.8181081 C93.8137405,55.4533472 96.7744512,54.0958874 98.0993498,52.7643574 C99.2175331,51.6405848 101.004673,50.9322888 101.36961,51.0836185 C101.4097,51.0996931 102.10069,51.4199193 102.677714,51.8174656 C103.733045,52.5282386 105.389736,53.1384736 107.311866,53.8287405 C109.460823,54.4362409 111.905027,54.6278025 115.226064,53.9199232 C117.690374,53.1898789 119.333328,52.6524491 119.73127,52.4864235 C121.142164,51.8978232 124.725793,50.121796 125.3317,49.6869419 L126.421787,48.9057499 L126.956921,49.6395969 C127.249714,50.0442184 127.690861,51.0825125 127.967728,51.4860508 C128.244602,51.889589 128.852482,52.8009759 129.315472,53.4982045 C129.506757,53.7862589 130.559994,54.8744281 130.901053,55.1552785 C131.262318,55.4498399 132.72943,56.521927 133.120866,56.78868 C134.24718,57.5562821 135.040193,58.0241716 135.796534,58.4220815 C136.244898,58.6579655 137.69741,59.2052355 137.77851,59.226946 C138.600919,59.47417 139.525027,59.7007593 140.890212,59.960793 C142.450506,60.2579679 143.396375,60.4125701 144.259571,60.4815877 C145.064051,60.5459238 145.780092,60.5378108 146.87578,60.4815877 C149.02265,60.3714292 150.554955,59.9365372 153.528122,59.0489668 C156.683713,57.9834095 156.715691,56.0101923 156.74602,55.960143 C156.77633,55.9101012 157.701415,56.4671205 158.807275,57.1911122 C161.814887,59.1601631 162.748706,59.2589966 165.169418,59.8897756 C166.012484,60.0493622 166.89075,60.1194706 167.825266,60.1265004 C169.538917,60.2280611 170.057865,60.0104257 171.077045,59.7027288 C171.688902,59.5179926 172.925065,59.0284986 173.583398,58.6533976 C175.235554,57.7120281 175.861605,56.3670446 176.259427,55.4245918 C176.542961,54.6872677 177.086986,52.8750992 176.782206,51.6373047 C176.640081,50.7758535 175.753855,49.2794494 175.892631,49.0182718 C176.219331,48.8450195 176.616208,49.3725334 177.018083,49.7380972 Z M136.11365,48.6453389 C136.607628,48.6756094 136.972927,48.8369595 136.965899,49.0004398 C136.958136,49.1815248 136.741565,49.1996447 136.391126,49.0714573 C136.34746,49.0554736 136.31746,49.0581476 136.272208,49.0477848 C136.19969,48.9898497 136.122884,48.9087496 136.07401,48.9057499 C136.048235,48.9041818 135.960984,48.9759643 135.915452,49.0004398 C135.75293,49.0132873 135.612651,49.0826685 135.519057,49.1661472 C135.26674,49.3912214 135.207414,49.3580648 135.221761,49.0241123 C135.235517,48.7041148 135.453141,48.6048495 136.11365,48.6453389 Z M16.5806783,49.0241123 C16.583963,49.0217412 16.5970193,49.0261121 16.6004981,49.0241123 C16.6602561,49.0444971 17.854109,49.9496497 18.6221136,50.3024265 C19.3901182,50.6552034 20.7486508,51.2801721 21.6545369,51.6991031 C22.5604249,52.1180342 24.937182,52.7444271 25.0437159,52.8590474 C25.0704995,53.0979312 24.6999702,53.4417617 23.9338093,53.8769642 C23.0411222,54.3840402 22.5443407,54.502789 21.4563393,54.4214314 C20.0638201,54.3172952 19.0135053,53.8909481 18.2257184,53.0957722 C18.0948002,52.9560023 17.6284453,52.3807344 17.5320268,52.2198903 C17.2551368,51.7579927 17.0312769,51.210647 16.8383352,50.5864963 C16.7917565,50.4358181 16.5062911,49.387555 16.5013993,49.2134922 C16.5129937,49.1240897 16.5393745,49.0538904 16.5806783,49.0241123 Z M138.690219,49.1661472 C139.349814,49.2510121 140.550016,49.4632464 142.515432,49.8526493 C143.471182,50.0419989 144.555219,50.2550209 144.913623,50.326099 C145.272028,50.3971922 145.762575,50.4798603 146.02353,50.5154789 C146.368616,50.5625966 146.827216,50.9442728 147.034338,51.2966709 C147.037674,51.3023523 147.050942,51.3146771 147.054157,51.3203434 C147.056447,51.3254188 147.051957,51.3389405 147.054157,51.3440159 C147.110591,51.4479551 147.151569,51.540274 147.153256,51.6280857 C147.155571,51.6406605 147.151373,51.6398045 147.153256,51.6517582 C147.139265,51.7635302 146.880061,51.9829003 146.578483,52.1252003 C146.271026,52.2702805 146.013084,52.5459873 146.00371,52.7643574 C145.99433,52.9827352 145.891483,53.1744785 145.765873,53.1667897 C145.62442,53.1581312 145.596393,52.8119296 145.706414,52.2672352 C145.855826,51.5275022 145.820296,51.3446295 145.448757,51.1783085 C144.91186,50.9379475 144.103759,51.363272 144.081193,51.888483 C144.0765,51.9977022 144.035935,52.0660683 144.001914,52.1252003 L143.982095,52.1725453 C143.859199,52.3301927 143.640592,52.2398585 143.486601,51.888483 C143.219246,51.2784147 142.665473,50.9782248 142.218136,51.1309635 C142.111813,51.1380009 142.018974,51.1929968 141.940659,51.2493259 C141.688431,51.4208662 141.295556,51.4662568 140.969491,51.3676884 C140.887523,51.3429175 140.799206,51.3739985 140.711834,51.3676884 C140.653244,51.3552044 140.608917,51.3396071 140.553276,51.3440159 C140.347404,51.356424 140.151934,51.4080566 140.037962,51.5097233 C139.744903,51.7711281 139.709043,51.7035422 139.780305,51.1783085 C139.819476,50.8897541 139.805262,50.7651952 139.701026,50.6811863 C139.667938,50.4620131 139.490632,50.4280005 139.106434,50.5628238 C138.597196,50.5516883 138.436735,50.4535668 138.452381,50.0893741 C138.463785,49.8241741 138.318958,49.4552924 138.115446,49.2845096 C137.923356,49.123317 138.030623,49.081252 138.690219,49.1661472 Z M98.7137624,49.8289768 C98.7565414,49.8856317 98.9643856,50.087594 98.5552043,50.4207889 C98.342134,50.5942988 96.3922247,51.8754007 96.0975541,52.0541829 C95.8123398,52.219307 95.5402731,52.3881429 95.2254846,52.5513051 C95.1279016,52.6018695 95.0268494,52.6438664 94.9281882,52.69334 C94.2434647,53.0203839 93.5714955,53.2964846 92.8867529,53.521877 C92.4190129,53.6591016 91.839851,53.7757824 91.3011721,53.9006367 C91.1299294,53.9214155 89.4929567,54.2250596 88.0705512,54.4924489 C85.9201421,54.7741628 82.2845068,54.7161747 80.6183214,54.3740864 C79.9232218,54.3138258 78.2667465,54.1085152 76.8723867,53.8059468 C75.9112901,53.6484357 73.366065,52.8501086 73.2651904,52.8353749 C72.5571524,52.6992107 72.5920923,52.4293141 72.8489754,52.2909077 C73.1304985,52.1518271 77.2054094,53.3953257 80.895798,53.7586018 C82.1029958,53.8774263 83.0448562,53.9322632 83.9282213,53.9479817 C84.1436701,53.9565795 84.3483178,53.963526 84.6615525,53.9479817 C86.1437344,53.9192263 87.6389307,53.735755 90.1318063,53.3088246 C92.2587361,52.9445637 92.666224,52.8153612 95.3245834,51.6754307 C96.5400199,51.1542421 98.6709644,49.7723371 98.7137624,49.8289768 Z M172.076735,49.0428079 C172.359716,49.73637 172.175979,50.2594524 171.958793,51.1464548 C171.734845,52.2925667 170.336661,52.918596 169.650276,53.1935377 C168.843653,53.444716 167.62051,53.5215058 167.005812,53.4267552 C166.098353,53.1520029 165.83377,53.010377 164.837734,52.2897411 C164.305017,51.9967326 164.42155,51.7127461 165.192536,51.5369031 C165.61841,51.4397663 166.603525,51.3015039 167.757365,51.1581433 C168.852716,50.8750582 169.256627,50.6964124 170.13476,50.2023279 C170.983635,49.6733217 171.843331,48.5819118 172.076735,49.0428079 Z M46.9445489,50.2550815 C47.2668404,50.2477487 47.0644188,50.9655667 46.6274328,51.3913608 C46.383025,51.6295023 46.1346089,52.1269805 46.0724795,52.5039601 L45.9733807,53.0957722 C45.9512967,53.0893257 45.9354599,53.0458744 45.9139214,53.0247548 L45.7157238,52.3145802 C45.6764014,52.1738103 45.6076316,52.0777644 45.5571657,51.9594929 C45.4819711,51.6677418 45.3996668,51.5160486 45.2796891,51.5097233 C45.2613217,51.4989741 45.2365549,51.462848 45.2202298,51.4623783 C44.9091959,51.4534547 44.2761642,52.3783255 44.1103251,53.0247548 C44.0978244,53.0736451 44.0764952,53.1188387 44.0706856,53.1667897 C44.0685165,53.1813871 44.0721887,53.2000069 44.0706856,53.2141346 C44.0405913,53.4968258 43.845197,53.7229378 43.6544706,53.7112568 C43.1974619,53.6832513 42.7671162,54.1622916 42.7427617,54.7291737 C42.7320241,54.9790567 42.6289043,55.2633159 42.5049246,55.3446583 C42.3809385,55.4260008 42.2775142,55.302972 42.2869072,55.084261 C42.3105197,54.5347033 41.6828263,54.115598 40.978803,54.2320515 C40.4889518,54.3130758 40.3821509,54.213265 40.3445707,53.6402394 C40.3951279,53.2477685 40.3768056,53.0666077 40.2058324,53.0010823 C40.1148353,52.8837122 39.9760202,52.8536766 39.7103384,52.8590474 L39.2743037,52.8590474 C39.2175874,52.8347158 39.1573322,52.8003623 39.1553851,52.7406849 L39.492321,52.0778553 C39.7580244,51.5343881 41.6340158,51.1368721 41.969791,51.107291 C42.3055663,51.0777099 43.5113181,50.8747098 44.6652765,50.6575138 C45.8192242,50.4403102 46.8541011,50.257142 46.9445489,50.2550815 Z M49.1841818,50.8942386 C49.2330177,50.8972233 49.6451546,51.2316151 50.1157105,51.6280857 L50.98778,52.3619252 L50.2148093,53.2851521 C49.3047874,54.3929563 47.8283707,55.6516507 46.9247292,56.1021779 C46.1651916,56.4808771 45.6474297,56.7198214 45.1805903,56.9070424 C45.0498369,56.9536223 44.9172443,57.005626 44.7841951,57.0490773 C44.427395,57.1739923 44.0976215,57.2823706 43.7337497,57.3568196 C42.6339718,57.5818408 41.8066982,57.5641451 42.5247443,57.3331471 C43.4032702,57.0505166 43.9661831,56.4091172 44.1697844,55.5577107 C44.1946844,55.4883144 44.2470783,55.4113731 44.2490634,55.3683308 C44.2504841,55.337674 44.2300936,55.3043886 44.2292437,55.2736409 C44.2314635,55.2599752 44.2273537,55.2398934 44.2292437,55.2262959 C44.2375521,55.1534907 44.2656423,55.0887304 44.2688832,55.0132435 C44.2886395,54.5533686 44.3529063,54.4967819 44.5463579,54.7528462 C44.8627511,55.1716257 45.8920911,55.2505517 46.528334,54.8948811 C47.9184888,54.117757 48.7148182,53.1604568 48.9067052,52.0305104 C49.0122985,51.4087308 49.1353523,50.8912464 49.1841818,50.8942386 Z M150.14604,51.4150333 C150.306469,51.3578179 150.65399,51.3813161 151.335226,51.4623783 C151.76547,51.5135866 152.084412,51.5798165 152.306394,51.6517582 C152.423708,51.7157307 152.528267,51.7891571 152.64333,51.8648105 C152.650725,51.8861499 152.667817,51.9133979 152.663149,51.9358204 C152.62826,52.1033231 152.815644,52.3418661 153.079364,52.4566151 C153.625362,52.6941808 154.306712,53.5211497 154.28837,53.9479817 C154.274379,54.2733894 152.733606,54.9844881 151.275766,55.3920033 C151.031917,55.4580893 150.816049,55.5464464 150.562255,55.6050557 C150.446882,55.6315689 150.321532,55.6569912 150.225319,55.6760731 C150.119218,55.6986624 150.014614,55.7025712 149.908203,55.7234181 C149.214296,55.8170248 149.246217,55.5851935 149.769465,54.8475361 C150.392116,53.9697074 150.435339,53.5203392 150.086581,51.9121555 C150.021864,51.613761 149.985605,51.4722488 150.14604,51.4150333 Z M134.646988,51.7464481 C134.78981,51.6991562 135.434438,51.7766504 136.07401,51.9121555 C136.97384,52.102808 137.311639,52.3029674 137.560492,52.8117024 C137.859729,53.4233994 137.860947,53.4618966 137.501033,53.427187 C136.933382,53.3724487 134.342068,51.847433 134.646988,51.7464481 Z M148.045145,52.8353749 C148.089878,52.8449499 148.149153,52.9026426 148.223523,53.0010823 C148.323225,53.1330725 148.365604,53.2607373 148.362262,53.3561696 C148.352425,53.3900686 148.356744,53.4238236 148.342442,53.4508595 C148.188793,53.5702522 147.951526,53.2636689 147.965866,52.9300648 C147.969367,52.8482982 148.000394,52.8257923 148.045145,52.8353749 Z M143.50642,53.6165669 C143.550506,53.610181 143.554305,53.7084919 143.54606,53.9006367 C143.535639,54.1433536 143.624083,54.3430509 143.744257,54.350414 C143.864432,54.357777 144.128799,54.5828134 144.33885,54.8475361 C144.548889,55.1122514 144.909184,55.4673311 145.131641,55.6524007 C145.525975,55.9804369 145.537251,56.000799 145.111821,55.960143 C144.652732,55.9162523 144.516562,55.866059 142.614531,55.2736409 C141.960619,55.069959 141.189335,54.8568839 140.910032,54.8001912 C140.389942,54.6946157 140.01317,54.3935395 140.374898,54.3740864 C140.480631,54.3683823 141.073029,54.3836388 141.683002,54.3977589 C141.696695,54.4002587 141.709107,54.3955924 141.722642,54.3977589 C141.788393,54.423151 141.838706,54.4362864 141.90102,54.4451039 C141.932275,54.4466795 141.969637,54.4454675 142.000119,54.4451039 C142.091163,54.4454827 142.186285,54.4111216 142.277595,54.3740864 C142.360331,54.3543228 142.457901,54.363769 142.535252,54.3267415 C142.854455,54.2629583 143.080647,54.1658443 143.228944,53.9479817 C143.373117,53.7361868 143.462354,53.6229376 143.50642,53.6165669 Z M53.1481338,53.8296193 C53.2592196,53.8596398 53.3576525,53.9113935 53.4850698,54.0189992 C53.7311963,54.2268474 53.6273091,54.4995544 52.9301165,55.4156758 C51.9026157,56.7658332 51.369201,57.233503 49.085083,58.7771687 C47.2991038,59.9841928 45.8371983,60.6098964 43.8923078,61.0023824 C42.9091627,61.3382363 40.6286243,61.2503488 40.5427683,61.2627797 C38.6557629,61.2696126 36.5023374,59.9062895 35.9475185,59.6872451 C35.754691,59.4763366 36.3064033,58.9834034 36.3851484,58.8059469 C36.5780825,58.6314599 37.135801,59.0564359 38.410315,59.2599663 C41.2449383,59.4388696 45.7716441,59.1785405 47.8562579,57.8776143 C48.4866595,57.4842041 49.5936612,56.8490694 51.3841752,55.084261 C52.4488927,54.0348313 52.8148955,53.7395881 53.1481338,53.8296193 Z M146.87578,55.4156758 C147.529984,55.4120473 148.194837,55.6888979 147.827128,55.9364705 C147.744881,55.9918376 147.546854,56.029403 147.331634,56.0548329 C147.321791,56.0556359 147.321594,56.0540527 147.311814,56.0548329 C146.65324,56.1266836 145.639654,56.0590068 145.646954,55.8891255 C145.650189,55.8138205 145.933799,55.6602561 146.261367,55.5340382 C146.439022,55.4655888 146.657718,55.4168727 146.87578,55.4156758 Z M38.3427749,56.0311604 C38.406455,56.0349329 38.4756821,56.0728619 38.5409725,56.1021779 C38.5857411,56.1248959 38.6333339,56.1334028 38.6797108,56.1731953 C38.7835391,56.2623024 38.8840047,56.3771878 38.996827,56.5519551 C39.2756749,56.9839382 39.5983285,57.1112545 40.5625881,57.1437672 C41.6592963,57.1807569 42.206569,57.3835752 41.9499713,57.6408894 C41.8975076,57.6934992 41.1494141,57.7341325 40.3049312,57.7592519 C38.0525965,57.8262242 37.3428734,57.4880372 37.8274612,56.5282826 C37.9878515,56.2106244 38.1619895,56.041599 38.3427749,56.0311604 Z M83.6507447,59.8424306 C87.2660909,59.7958886 90.9503528,59.8103193 91.6182883,60.0318105 C92.0198461,60.1649673 96.572518,59.9368024 96.7516061,60.1738454 C96.8239974,60.2696792 96.6105402,60.692413 96.2759319,61.1207448 C95.8237369,61.6995882 95.6580628,62.1960589 95.6218798,63.0382161 C95.619197,63.100916 95.6235415,63.1472384 95.6218798,63.2039235 C95.6209665,63.2198315 95.6225584,63.2354515 95.6218798,63.2512685 C95.6217593,63.2541925 95.6021742,63.2483445 95.6020601,63.2512685 C95.6006457,63.289849 95.6216198,63.3322549 95.6218798,63.3696309 C95.6180554,64.0731924 95.7334603,64.2947365 96.2759319,64.7426351 C97.7355415,65.9477654 103.396268,66.5391381 105.472301,65.6895345 C105.702324,65.59539 105.91013,65.4817393 106.106533,65.3581197 C106.233335,65.278315 106.351169,65.1644599 106.463289,65.0740499 C106.488835,65.0534454 106.517807,65.0478018 106.542568,65.0267049 C106.575884,64.9967299 106.610855,64.9633914 106.641666,64.932015 C107.694194,63.9645413 107.97422,62.5363216 107.19662,61.3101247 C106.914532,60.8652789 106.696597,60.4213195 106.701126,60.3158803 C106.70339,60.2631645 106.929525,60.2433175 107.295719,60.2685353 C107.661918,60.2937532 108.149586,60.3669371 108.702922,60.4579152 C109.809613,60.639879 114.894063,61.0425006 120.000185,61.3811422 C129.546352,62.0142391 131.437785,62.250267 134.607348,63.1092336 C139.052124,64.3137806 140.073676,64.5462785 142.812729,65.0267049 L144.259571,65.2871023 C144.99738,65.4456284 145.663356,65.5932917 145.924431,65.7842245 L146.538844,66.5654165 C146.550932,66.5808093 146.566249,66.5975126 146.578483,66.6127615 C146.615827,66.6724919 146.654528,66.7194732 146.697402,66.7547964 C148.258121,68.5881073 150.83545,69.4253785 153.376661,68.8853201 C154.595408,68.6263014 154.845448,68.4694494 155.378457,67.6070059 C155.760023,66.9895971 156.073328,66.7153599 156.369445,66.7074514 C156.478,66.6927858 156.744961,66.6936039 156.884758,66.6837789 C157.394599,66.7113148 158.631206,66.7517814 160.254118,66.7547964 C162.197742,66.7583946 163.550083,66.8553571 163.564018,66.9915212 C163.551136,67.0159285 163.331736,67.448457 163.108163,67.6543508 C162.73507,67.9979465 162.641622,68.3281872 162.652309,69.3114248 C162.652518,69.331537 162.844887,70.654257 163.643297,71.418276 C164.431203,72.1195649 164.948414,72.3578957 166.219865,72.5782278 C167.977507,72.8828113 170.113925,72.5217396 170.857689,71.7970358 C171.510803,71.1606739 172.296198,69.2239843 172.185613,68.5539053 C172.089007,67.9686987 172.129122,67.9698198 173.989211,68.0567831 L175.79281,68.151473 L175.416234,68.6012502 L175.317135,68.6722677 C174.640365,69.2984258 172.79291,71.7853094 172.780206,72.0811056 C172.775405,72.1927413 172.270277,73.0685854 171.670299,74.0222494 C171.070322,74.9759059 170.373428,76.2905584 170.104538,76.9576376 C169.835649,77.6247245 169.507459,78.1732823 169.371207,78.1649344 C169.234949,78.1565941 168.633709,77.5703952 168.043283,76.8866202 C167.452857,76.2028603 166.863339,75.6398264 166.735179,75.6319784 C166.607007,75.6241305 165.986252,75.3079343 165.367616,74.9218039 C165.081266,74.7430823 164.859133,74.6521875 164.594645,74.4956991 C164.587294,74.4913358 164.58217,74.4763672 164.574825,74.4720267 C164.564754,74.4664059 164.545283,74.453975 164.535186,74.4483542 C162.853766,73.4580262 161.437322,72.7842656 158.767636,71.8207083 C157.985894,71.538555 157.406624,71.345789 156.884758,71.1815512 C156.872867,71.1778014 156.856935,71.1615754 156.845119,71.1578787 L153.614498,70.589739 C152.801545,70.5175701 151.807836,70.447083 150.403697,70.3530142 C148.728677,70.2407725 147.173932,70.1883143 145.686594,70.1636343 C145.549689,70.1602861 145.480487,70.1661038 145.349658,70.1636343 C142.383043,70.1275082 139.744668,70.2446889 137.362295,70.5660665 C136.3322,70.7050184 134.155438,70.8842323 132.526273,70.9448263 C132.033487,70.9631734 131.84696,70.9858005 131.376727,71.0158438 C130.864794,71.0444553 130.326235,71.1162151 129.929885,71.1578787 C129.579129,71.1955577 128.86485,71.2172606 128.720879,71.2525686 C127.431035,71.5688709 125.043974,71.7041412 125.054224,71.465621 C125.059297,71.3477434 125.140631,71.2469327 125.232601,71.2525686 C125.501624,71.2690598 126.259449,68.8543148 126.302869,67.8437307 C126.303262,67.8346708 126.302507,67.8290651 126.302869,67.8200582 C126.303116,67.8140587 126.302647,67.802355 126.302869,67.7963857 C126.304086,67.7684408 126.302241,67.7531238 126.302869,67.7253683 C126.33824,66.4754913 126.086373,65.7995491 125.113683,64.5295827 C124.996807,64.376988 124.931772,64.3379985 124.836206,64.2218404 C124.427095,63.665306 124.186943,63.4314673 123.765939,63.3459585 C123.712511,63.3339442 123.627271,63.3546169 123.567742,63.3459585 C123.467463,63.3329367 123.37548,63.3068932 123.250625,63.2986135 C123.224584,63.296803 123.198612,63.3002876 123.171346,63.2986135 C122.860883,63.2795922 122.578859,63.2871446 122.319097,63.322286 C122.200609,63.3368985 122.106756,63.3658585 122.001981,63.3933034 C121.851262,63.4319369 121.698069,63.4724263 121.565946,63.5353383 C121.522609,63.5588972 121.48798,63.6027803 121.447027,63.6300283 C120.711876,64.0483684 120.290796,64.9393554 120.079464,66.3523641 C120.071802,66.4016483 120.065866,66.4899978 120.059644,66.541744 C119.990208,67.0629477 119.919244,67.5740462 119.901086,68.246163 C119.859734,69.7776326 119.744805,70.6972765 119.58397,70.8027914 C119.445473,70.893671 118.545719,71.2422739 117.582174,71.5839834 C115.704783,72.2497749 114.436547,72.2293598 110.922735,71.4419485 C110.087381,71.2547654 108.864467,70.9812554 108.207428,70.8501364 C107.550382,70.7190097 106.933718,70.5485527 106.839864,70.4713766 C106.691967,70.3497493 105.75676,70.0758378 103.668702,69.5481497 C102.306124,69.2037964 99.3281623,68.7398839 98.4362858,68.7196127 C97.0020962,68.687009 94.5328775,69.2201058 92.629096,69.9979269 C91.1449797,70.6043061 90.3127274,70.8084879 89.7354111,70.684429 C89.6317077,70.6621352 89.8849504,70.275073 90.2903643,69.8322195 C91.9648836,68.0030901 92.3799125,66.0365012 91.5191895,64.056133 C91.3629463,63.696637 91.1598461,63.3691461 90.9245967,63.0618886 C90.8432944,62.914945 90.7168158,62.7363976 90.4885619,62.5647664 C90.3899578,62.4614862 90.284244,62.3699248 90.1714458,62.2806966 C89.5821298,61.7899224 88.8747895,61.4368123 88.1300105,61.2864522 C87.8289404,61.2256688 87.6751961,61.2409329 87.4759584,61.2391072 C87.3845909,61.2334789 87.2382989,61.2000647 87.1588422,61.2154348 C87.1069937,61.2247825 87.031184,61.2467582 86.9804644,61.2627797 C86.8446499,61.3183514 86.6816649,61.421571 86.5047902,61.5468496 C86.3840894,61.6237529 86.3002946,61.6214425 86.1480345,61.7362294 C85.1910096,62.4577516 84.6761588,63.203666 84.2651573,64.4822378 C84.1745064,64.7207201 84.0973521,64.9345981 84.0471399,65.1687398 C83.9481109,65.5558929 83.8646332,65.9333043 83.7696633,66.4233816 C82.9758073,70.5201987 82.848092,70.6614231 80.400304,70.0926168 C78.0678766,69.5506192 72.8953505,69.06161 71.5210515,69.2640798 C70.8220894,69.3670722 69.5942537,69.5710116 68.7859246,69.7138571 L67.7751168,69.9032369 C67.5771856,69.9101986 67.3721573,69.9054716 67.2399833,69.8322195 L66.3282743,68.2224905 C66.0576411,67.7390642 65.8729716,67.5106266 65.6742223,67.2282461 C65.2757404,66.6621214 64.9237732,66.2817406 64.4057576,66.0682943 C63.7716331,65.6937615 63.2990032,65.5148884 62.641799,65.5474996 C62.0965748,65.5869815 61.4833482,65.5994806 61.0562181,65.8315694 C60.6987648,66.0918153 60.2816429,66.3631133 59.7877535,66.8021413 C59.3388882,67.1768863 58.8177205,68.326604 58.7967655,68.8143026 C58.7871378,69.0382784 58.5876781,69.4594896 58.3607308,69.761202 C57.9654138,70.2867691 57.7629668,70.3149488 53.6832674,70.1399618 C51.3412313,70.0395071 49.7309789,69.8889047 50.0958908,69.808547 C51.8381587,69.4248558 53.0108923,68.5953643 55.0508308,66.3286916 C56.9969473,64.1662839 57.225049,63.9898425 58.6778469,63.5590108 C59.5321388,63.305666 61.0765707,62.9875381 62.1066654,62.8488363 C63.1367602,62.7101344 64.4304292,62.4412907 64.9805306,62.2570241 C66.1131491,61.8776508 70.4071302,60.9325542 71.7390689,60.7656575 C72.2236287,60.7049272 73.014434,60.518032 73.5030275,60.3632253 C73.8339826,60.258377 74.2360161,60.1900033 74.6723934,60.1265004 C74.6802261,60.1253566 74.7041811,60.1276291 74.7120329,60.1265004 C75.0289588,60.0813977 75.3482377,60.0530589 75.6633814,60.0318105 C75.7866952,60.0235005 75.9218691,60.0126074 76.0399568,60.008138 C76.0486077,60.0075244 76.0512081,60.0087364 76.0597766,60.008138 C76.4764482,59.9935254 80.0354048,59.8889726 83.6507447,59.8424306 Z M101.40925,60.1028279 C102.203848,60.1235764 102.96806,60.2955333 103.173208,60.6236226 C103.313558,60.8480908 103.68341,61.0536513 104.005638,61.0733998 C104.546968,61.1065716 105.930832,62.5856058 105.908335,63.1092336 C105.903699,63.2173847 105.528031,63.4599273 105.075905,63.6537008 C104.56023,63.8747071 102.2083,63.9681774 100.616459,63.9140981 C99.9587922,63.8513982 99.3798839,63.782676 98.8525007,63.6773733 C98.647409,63.6123326 98.4755321,63.5424969 98.1786289,63.4643209 C97.5426588,63.2968485 97.3675028,63.1334818 97.3858385,62.7068013 C97.4012123,62.3492521 97.9748183,61.5546596 98.416466,61.1917623 C98.5636967,61.0708167 98.7036591,60.9971252 98.7930414,61.0023824 C98.8647921,61.0066093 99.1576426,60.7990035 99.4470935,60.5289327 C99.7835601,60.2149939 100.614664,60.0820719 101.40925,60.1028279 Z M87.3768596,63.322286 C87.5849005,63.2446175 87.7820516,63.2750774 88.1101907,63.3696309 C89.0203205,63.6318766 89.7500174,64.2859569 90.0327075,65.1213949 C90.1183415,65.3744594 90.1647863,65.6119418 90.1912655,65.8315694 C90.1967326,65.904564 90.2098739,65.9689911 90.2110853,66.0446218 C90.2283174,66.7567811 89.8880961,67.3875373 89.0615392,68.3408529 C88.4466383,69.0500578 87.8775163,69.9015401 87.7930746,70.2346517 C87.5784947,71.0812101 87.9489816,72.0169134 88.6453243,72.4125204 C88.7735089,72.4853256 88.8972667,72.5231713 89.0218997,72.5782278 C89.0345399,72.5840153 89.048715,72.5963628 89.0615392,72.6019003 C90.0250459,73.0139076 90.949281,72.9224901 92.629096,72.2231405 C95.8162911,70.8962314 96.506691,70.7679 99.1101576,70.9448263 C100.439274,71.0351378 102.004477,71.2684462 102.598435,71.465621 C103.192407,71.6627958 104.063347,71.9048535 104.540772,72.0100882 C105.018203,72.1153001 105.515619,72.3140808 105.630859,72.4361929 C105.746099,72.5583051 106.419932,72.7535027 107.13716,72.8859701 C107.854395,73.0184073 108.741553,73.2023027 109.099317,73.2884024 C111.39376,73.8406341 112.386429,73.9834796 114.470472,74.1169394 C116.048556,74.2180001 116.89433,74.1822224 117.08668,73.9749045 C117.165109,73.8903729 117.274749,73.8140376 117.383976,73.7618521 C117.493217,73.7096817 117.613791,73.685479 117.701093,73.6908346 C117.875728,73.7015384 118.63871,73.3809637 119.405592,73.0043326 C121.349298,72.0497443 121.783259,71.2726732 121.764143,68.6959402 C121.748224,66.5489783 122.045666,65.4244557 122.695672,65.2634298 C123.055504,65.1742849 123.597614,65.6277664 123.983957,66.1866567 C124.148775,66.4381759 124.218382,66.5959976 124.301073,66.7784689 C124.323131,66.8382902 124.364198,66.8843625 124.380352,66.9441763 C124.591405,67.7256107 124.202672,69.4204091 123.66684,69.9979269 C123.064079,70.6475681 122.923533,72.2091946 123.409184,73.028005 C123.438713,73.0777816 123.50983,73.0988104 123.547922,73.1463675 C123.635693,73.2609347 123.743862,73.3690025 123.865038,73.4541098 C124.552895,73.9849113 125.682729,74.2540883 126.263229,73.9275595 C127.039751,73.4907889 130.763488,72.9736379 133.200145,72.9569876 C133.971562,72.9517152 134.438452,72.8882806 135.063202,72.8386252 C135.24973,72.8410568 135.411472,72.8437611 135.578516,72.8149527 C135.798975,72.7901136 136.282666,72.7716074 136.391126,72.7439352 C136.723439,72.6591461 138.066362,72.5789475 139.304631,72.5072104 C140.040791,72.4524796 140.693276,72.4163989 141.484805,72.3651754 C142.395886,72.3205575 143.51653,72.2734777 143.744257,72.246813 C144.668423,72.1385862 153.3463,72.6810838 154.664945,72.9333151 C156.471968,73.2789561 157.620347,73.7757677 158.37124,74.5193716 C158.376308,74.524394 158.386031,74.5143265 158.39106,74.5193716 C158.398779,74.5268105 158.403231,74.5355674 158.41088,74.5430441 C158.650651,74.7879123 158.861483,75.0646569 159.025292,75.3715811 C159.025292,75.3715887 159.295774,75.6490226 159.26313,76.436843 C159.142372,76.9540167 158.908442,77.4171338 158.688357,77.9282095 C158.066485,79.207804 157.34067,79.8223796 156.191067,80.8399253 C156.103314,80.9152757 156.005789,81.0013072 155.91359,81.0766501 C155.428009,81.4841956 154.876544,81.8875369 154.26855,82.2839469 C154.08768,82.4028244 153.86762,82.5180053 153.673957,82.6390342 C152.998449,83.0513824 152.289168,83.4697149 151.454144,83.8936759 C150.913341,84.168254 150.602795,84.3271968 150.245139,84.5091605 C149.851978,84.6778071 149.458665,84.8369847 149.055953,84.9826102 C148.103622,85.3051393 146.273557,85.751591 145.270379,85.8821647 C144.769342,85.925366 144.102079,85.9520307 143.070386,85.9295097 C142.561256,85.9183817 141.874743,85.8825813 141.286607,85.8584922 C138.123722,85.6996631 133.997724,85.3618169 132.030779,85.0536277 C130.474931,84.8098503 128.273365,84.4958509 127.135298,84.3434531 C123.005488,83.7904033 118.955439,83.1635634 118.513703,83.0177939 C117.812927,82.7865535 108.109141,82.1931506 105.412841,82.2129294 C104.08708,82.222656 102.122787,82.3397079 101.032674,82.4733268 C99.9425495,82.6069381 96.8265788,82.7088547 94.115578,82.7100516 C91.40459,82.7112561 89.1332582,82.7584117 89.0615392,82.8047416 C88.9898266,82.8510715 87.6620675,82.8310654 86.108395,82.7573966 C84.5547224,82.6837202 82.5774206,82.7171875 81.728228,82.8520865 C80.8790289,82.9869705 78.4670497,83.1257102 76.357073,83.1598288 C74.2471025,83.19394 71.4245086,83.3246348 70.0940288,83.4438987 C68.803347,83.5595946 67.6735318,83.6365813 67.4381809,83.6332786 C67.4309253,83.6331801 67.3642865,83.6335437 67.3589019,83.6332786 C67.34486,83.6338164 67.3332345,83.6327407 67.3192623,83.6332786 C67.1135808,83.6245292 66.223144,83.6476639 65.277827,83.656951 C64.3135339,83.6664276 62.4803868,83.6688365 61.2147762,83.6806235 C55.6915704,83.7320743 50.9225936,84.1002591 45.9337412,84.8405753 C43.6164104,85.1844589 42.0598393,85.3798686 40.6616869,85.5270774 C40.3183446,85.555295 40.1069746,85.5903606 39.6310593,85.6217673 C38.5159045,85.7186465 34.5121893,86.1033149 34.4977415,86.1188895 C34.3720315,86.2543795 32.4987522,86.2527432 30.1175745,86.0952171 C28.2890973,85.9742563 27.2023173,85.8617268 26.3320003,85.7164573 C25.4616864,85.571165 24.8140489,85.3881256 23.9139895,85.0536277 C20.838368,83.9106368 18.4618101,82.0781288 17.1554513,80.0113883 C16.9934912,79.728076 16.8201727,79.4763219 16.6797771,79.1828513 C16.6647192,79.1513688 16.6548778,79.1195984 16.6401376,79.0881613 C16.5025415,78.7946074 16.4066678,78.5134464 16.3032017,78.2359519 C16.1928427,77.8725091 16.1263707,77.492507 16.0851843,77.123345 C15.9594014,75.995959 16.6698983,74.9691337 17.8293232,74.5903891 C18.2419947,74.4555809 19.0775203,74.1221435 19.6923806,73.8328695 C20.3072391,73.5435956 20.9848307,73.2398833 21.1986824,73.17004 C21.4422727,73.0905004 21.5562321,72.8506546 21.5752578,72.5545553 C21.5758451,72.5454045 21.5947047,72.5401549 21.5950776,72.5308828 C21.5998508,72.5091345 21.570673,72.1541229 21.5157986,72.0337606 C21.4574834,71.8483653 21.3712285,71.6799914 21.2383219,71.512966 C20.7959791,70.9570375 20.9094858,70.4246452 21.39688,70.0452719 C21.8842736,69.6659061 22.7420386,69.4356429 23.8148907,69.5008047 C25.1346978,69.580973 25.9528397,70.3841937 26.2329015,71.8680532 C26.2687527,72.0579937 26.3284302,72.1626905 26.3716398,72.3178305 C26.4208087,72.5442379 26.4616437,72.6922345 26.5103781,72.9569876 C26.5208582,73.0139228 26.6027775,73.0713049 26.6491164,73.122695 C26.6846404,73.1625935 26.6955397,73.2057797 26.7482152,73.2410574 C26.7994479,73.2753958 26.862464,73.3062798 26.9265931,73.3357474 C27.0227725,73.4032196 27.1606933,73.4194911 27.2833488,73.4541098 C27.6880924,73.5683513 28.2238322,73.566306 29.0274877,73.3830923 C31.9550654,72.7156494 38.9278777,72.2423209 45.7157238,72.2704855 C46.8601453,72.2752427 48.086998,72.2314581 48.4508507,72.1757956 C49.0738825,72.0804769 54.2463261,72.1808103 57.270644,72.341503 C58.5059383,72.407142 58.718368,72.3315189 59.331899,71.6550009 C59.7070791,71.2413043 60.0163181,70.7346146 60.0255906,70.5187216 C60.0600802,69.7160008 60.8535492,67.7933329 62.1463049,67.5123159 C63.9060586,66.9669094 64.1338051,68.1986362 64.6039552,68.7906301 C64.7906859,69.1053795 64.9647319,69.3533081 65.119269,69.6901846 C65.1605512,70.147734 66.36988,71.9846052 66.7841288,72.199468 C66.7904585,72.2027254 66.7973018,72.1964304 66.8039486,72.199468 L67.2796228,72.246813 C67.5027648,72.2271857 67.750553,72.1614027 67.9931342,72.0574331 C68.4343252,71.8683563 69.1042141,71.6813247 69.4796162,71.6313284 C69.855012,71.5813245 70.684721,71.4595836 71.3228539,71.3472586 C71.4351447,71.3274949 71.7075095,71.3326536 71.8778072,71.3235861 C72.9352374,71.3394182 74.2084588,71.405383 75.445364,71.4892935 C76.6939074,71.6141933 77.9652388,71.7689242 78.8147232,71.9627432 C78.9941412,72.0036795 79.3827544,72.0379043 79.6669729,72.0811056 C80.0365274,72.1769243 80.4243161,72.2748034 80.6777807,72.341503 C81.1788623,72.473372 81.8194877,72.4224363 82.4219196,72.2704855 C84.033136,72.1192164 84.6400393,71.1256538 85.2561453,67.8437307 C85.6777575,65.5979125 85.789522,65.0094259 86.1678542,64.4822378 C86.293965,64.3065008 86.4375235,64.1361271 86.6435285,63.9140981 C86.9512707,63.5824258 87.1688251,63.3999544 87.3768596,63.322286 Z M134.369511,64.1271505 C134.143616,64.1352029 133.929328,64.1952288 133.715459,64.2691854 C133.370354,64.2955698 133.115659,64.4215529 132.843389,64.7899801 C132.396408,65.2034039 132.079698,65.7697634 132.050599,66.4470541 C132.044808,66.5819683 132.08878,66.7119738 132.110058,66.8494863 C132.115773,66.921587 132.136829,67.0157922 132.149698,67.0862112 C132.173887,67.1830676 132.193225,67.2511156 132.228977,67.3466085 C132.29736,67.553078 132.392406,67.7521163 132.526273,67.9384206 C132.880048,68.4840317 133.388652,68.9511182 133.973116,69.1457174 C135.206184,69.5562551 135.168878,69.5503465 135.320859,69.2877523 C135.395109,69.1594588 135.736161,68.9800933 136.09383,68.9089926 C136.793033,68.7699953 136.960756,68.4703736 137.104638,66.9678487 C137.207054,65.8983524 136.735369,65.1216752 135.519057,64.4112203 C135.154545,64.1983119 134.756063,64.1133863 134.369511,64.1271505 Z M53.9805638,64.8136526 L53.2075931,65.6895345 C52.9445326,65.9829673 52.6322049,66.2442509 52.3157039,66.5180715 C52.0408023,66.7350403 51.737284,67.0002403 51.5229135,67.1335561 C51.5041212,67.1445629 51.4822846,67.1465476 51.4634542,67.1572286 C51.1428625,67.3506915 50.8293551,67.4802501 50.5121057,67.5833334 C49.3503507,67.8959465 48.188881,67.6085966 47.2616651,66.7311239 L46.5481537,66.0919668 L48.4112112,65.760552 C49.4338601,65.5817546 50.5811863,65.320524 50.9481405,65.1924123 C51.3151073,65.0643082 52.1564418,64.9246519 52.8111979,64.88467 L53.9805638,64.8136526 Z M134.369511,66.1156393 C134.835044,66.1124501 135.457663,66.5040574 135.439778,66.9205038 C135.433594,67.0646522 135.345208,67.1808405 135.24158,67.2519186 C135.225959,67.2628193 135.21923,67.2428662 135.201941,67.2519186 C135.113941,67.2983394 135.001308,67.3190348 134.884825,67.322936 C134.772223,67.3195045 134.648408,67.3234966 134.528069,67.2755911 C134.382278,67.2175726 134.239341,67.1164286 134.111854,66.9915212 C133.776986,66.6634395 133.744373,66.5313205 133.973116,66.2813467 C134.064876,66.1810662 134.214333,66.1166998 134.369511,66.1156393 Z M150.760453,66.1393117 C151.709543,66.2110792 153.088072,66.5283208 153.079364,66.7311239 C153.074056,66.8547056 152.89363,66.9484184 152.682969,66.9441763 C152.47229,66.9399341 151.858708,66.9654626 151.315406,66.9915212 C151.120887,67.0008387 150.967485,66.9636748 150.800092,66.9441763 C150.736193,66.936745 150.660827,66.9319044 150.601894,66.9205038 C150.532903,66.9003916 150.45044,66.8973085 150.383877,66.8731588 C150.211588,66.8181099 150.062531,66.7541979 149.967662,66.6601064 C149.965715,66.6590383 149.94977,66.6611821 149.947842,66.6601064 C149.595368,66.3041253 149.603714,66.2678704 150.027121,66.1629842 C150.185185,66.123828 150.444078,66.1153893 150.760453,66.1393117 Z M23.5770536,66.3523641 C24.9492597,66.3612498 26.9393266,66.4442134 30.0779349,66.6127615 C34.9952333,66.8768328 38.5429031,66.9408053 40.0274545,66.8021413 C41.7525665,66.6410169 42.788642,66.5903237 43.5355521,66.7074514 C44.2824685,66.8245791 44.7502636,67.10977 45.3193286,67.6306783 C45.8511197,68.1174452 46.3748434,68.523256 46.4886944,68.5302328 C46.6025391,68.537202 46.8066732,68.7121587 46.9445489,68.932665 C47.0824183,69.1531638 47.5296346,69.4311962 47.9355369,69.5481497 C48.3414329,69.6651107 48.7274077,69.8903061 48.7877866,70.0215994 C48.8462058,70.1486051 48.8600447,70.2249025 48.8274261,70.2346517 C48.7973001,70.2375227 48.7404221,70.2556502 48.7085076,70.2583242 C48.5759594,70.2596196 47.3576118,70.2391514 45.7950028,70.2109793 C45.0561856,70.1976545 44.4205516,70.2419618 43.6148311,70.2583242 C43.0333416,70.2574758 42.5415451,70.2535746 41.9896108,70.2819967 C41.6880587,70.2974577 41.1949894,70.3098886 40.978803,70.3293417 C40.0490901,70.4129794 39.5525147,70.4331294 38.996827,70.4713766 C38.5950237,70.5001775 38.2636557,70.5225622 37.8472809,70.5423941 C37.2200454,70.5686194 36.6024002,70.5967158 35.4887295,70.6134115 C33.2933869,70.6463409 32.1693833,70.7665971 29.9986559,71.1815512 C28.8471126,71.4016863 28.2344899,71.3973609 27.9770404,71.1815512 C27.9342462,71.1145486 27.883507,70.9730212 27.8383021,70.8738089 C27.8362731,70.8454928 27.8171491,70.8338194 27.8184823,70.8027914 C27.8490073,70.0923744 26.9956477,68.897001 26.1338027,68.2935079 C25.9906583,68.187834 25.8358416,68.0935985 25.6779482,68.0094381 C25.1856932,67.8083924 24.2563913,67.5397987 23.5175943,67.5596609 C22.7635543,67.32208 21.101766,67.768153 20.405892,68.2935079 C19.6218191,68.8854337 19.0714291,70.00932 19.1968866,70.7317739 C19.205828,70.783255 19.1941651,70.8062684 19.1968866,70.8501364 C19.1588505,71.0227599 19.0824134,71.1598028 18.9590495,71.2762411 C18.7952565,71.3850133 18.5755825,71.4779004 18.1266196,71.6076559 C17.482414,71.7938239 15.0619938,72.5962719 14.1428478,72.9569876 C12.0106513,73.7937588 10.4672856,74.753377 4.90683957,78.7094016 C3.72612604,79.5494301 2.09139349,80.7287896 1.97351507,80.7215628 C1.63323928,80.7007007 1.5214292,79.4991536 1.69603843,77.6914847 C1.83272818,76.2763549 1.97318654,75.9297291 2.5086486,75.3952536 C3.43745837,74.4681633 4.28091189,74.0741698 6.53205991,73.5251272 C6.9297426,73.4281193 7.28086947,73.321203 7.66178623,73.2173849 C10.4472084,72.4581685 12.73119,71.5648333 13.052761,71.0395163 C13.12311,70.924593 13.1201488,70.7538481 13.1518598,70.6134115 C13.1744784,70.532213 13.2246697,70.4606198 13.2311388,70.3766867 C13.2436269,70.1977908 13.2057404,70.0217509 13.1716796,69.8322195 C13.0511304,69.1614662 12.6830391,68.4920311 12.141052,68.198818 C11.9665297,68.1044008 12.14452,68.021619 12.5176275,68.0331106 C12.8907324,68.0446249 13.4711793,67.965555 13.8257316,67.8437307 C14.1802808,67.721914 15.5249326,67.4533809 16.7986957,67.2519186 C18.0724587,67.050479 19.8509045,66.7301694 20.7626477,66.541744 C21.4427959,66.4011863 22.2048476,66.3434784 23.5770536,66.3523641 Z" id="path1325"></path>
                </g>
            </g>
        </g>
    </g>
</svg>