<?xml version="1.0" encoding="UTF-8"?>
<svg width="40px" height="41px" viewBox="0 0 40 41" version="1.1" xmlns="http://www.w3.org/2000/svg" xmlns:xlink="http://www.w3.org/1999/xlink">
    <!-- Generator: Sketch 50 (54983) - http://www.bohemiancoding.com/sketch -->
    <title>adding-users_icon-icons.com_71532</title>
    <desc>Created with Sketch.</desc>
    <defs></defs>
    <g id="Page-1" stroke="none" stroke-width="1" fill="none" fill-rule="evenodd">
        <g id="iPhone-X" transform="translate(-85.000000, -1066.000000)" fill="#0089BF" fill-rule="nonzero">
            <g id="adding-users_icon-icons.com_71532" transform="translate(85.000000, 1066.000000)">
                <path d="M27.1746667,7.544 C27.26,7.59046667 27.352,7.63556667 27.432,7.6875 C28,8.0032 28.64,8.2 29.3333333,8.2 C31.544,8.2 33.3333333,6.36456667 33.3333333,4.1 C33.3333333,1.83543333 31.544,0 29.3333333,0 C27.1253333,0 25.3333333,1.83543333 25.3333333,4.1 C25.3333333,5.54866667 26.0706667,6.81283333 27.1746667,7.544 Z" id="Shape"></path>
                <path d="M8,24.6013667 C8,21.8680333 8,10.9347 8,10.9347 C8,10.9347 8.00666667,10.3197 8.31733333,9.56666667 C5.54533333,9.56666667 2.66666667,9.56666667 2.66666667,9.56666667 C2.66666667,9.56666667 0,9.56666667 0,12.3013667 L0,21.8680333 C0,24.6013667 2.66666667,24.6013667 2.66666667,24.6013667 L2.66666667,38.2680333 L10.6666667,38.2680333 L10.6666667,27.3347 C10.6666667,27.3347 8,27.3347 8,24.6013667 Z" id="Shape"></path>
                <ellipse id="Oval" cx="18.6666667" cy="4.1" rx="4" ry="4.1"></ellipse>
                <path d="M8,8.2 C8.69333333,8.2 9.33466667,8.0032 9.90266667,7.68613333 C9.98133333,7.63693333 10.0693333,7.5932 10.1533333,7.54536667 C11.2613333,6.81693333 12,5.5514 12,4.1 C12,1.83543333 10.2093333,0 8,0 C5.79066667,0 4,1.83543333 4,4.1 C4,6.36456667 5.79066667,8.2 8,8.2 Z" id="Shape"></path>
                <path d="M37.3333333,20.9810667 C37.3333333,17.8896667 37.3333333,12.3013667 37.3333333,12.3013667 C37.3333333,12.3013667 37.3333333,9.56666667 34.6666667,9.56666667 L29.016,9.56666667 C29.328,10.3197 29.3333333,10.9347 29.3333333,10.9347 C29.3333333,10.9347 29.3333333,13.5149667 29.3333333,16.482 C28.896,16.4328 28.4506667,16.4013667 28,16.4013667 C27.5493333,16.4013667 27.1066667,16.4314333 26.6666667,16.482 C26.6666667,14.2516 26.6666667,12.3013667 26.6666667,12.3013667 C26.6666667,12.3013667 26.6666667,9.56666667 24,9.56666667 C23.3333333,9.56666667 13.3333333,9.56666667 13.3333333,9.56666667 C13.3333333,9.56666667 10.6666667,9.56666667 10.6666667,12.3013667 L10.6666667,21.8680333 C10.6666667,24.6013667 13.3333333,24.6013667 13.3333333,24.6013667 L13.3333333,38.2680333 L20.4666667,38.2680333 C22.5266667,39.9736333 25.1453333,41 28,41 C34.628,41 40,35.4964333 40,28.7013667 C40,25.7739667 38.9973333,23.0912 37.3333333,20.9810667 Z M28,38.2666667 C22.8466667,38.2557333 18.6746667,33.9821667 18.6666667,28.7013667 C18.6746667,23.4192 22.8466667,19.1429 28,19.1347 C33.1533333,19.1429 37.3226667,23.4192 37.3333333,28.7013667 C37.3226667,33.9821667 33.1533333,38.2557333 28,38.2666667 Z" id="Shape"></path>
                <polygon id="Shape" points="29.336 21.8666667 26.6666667 21.8666667 26.6666667 27.3333333 21.3333333 27.3333333 21.3333333 30.0666667 26.6666667 30.0666667 26.6666667 35.5333333 29.336 35.5333333 29.336 30.0666667 34.6666667 30.0666667 34.6666667 27.3333333 29.336 27.3333333"></polygon>
            </g>
        </g>
    </g>
</svg>